<svg version="1.1" xmlns="http://www.w3.org/2000/svg" xmlns:xlink="http://www.w3.org/1999/xlink" width="1573" height="749"><defs/><g><g><path fill="none" stroke="#000000" paint-order="fill stroke markers" d=" M 10 10 L 1563 10 L 1563 739 L 10 739 L 10 10" stroke-miterlimit="10" stroke-dasharray=""/></g><g><path fill="#ffffff" stroke="none" paint-order="stroke fill markers" d=" M 10 10 L 10 33 L 193.6416015625 33 L 205.1416015625 21.5 L 205.1416015625 10 L 10 10"/></g><g><path fill="none" stroke="#000000" paint-order="fill stroke markers" d=" M 10 10 L 10 33 L 193.6416015625 33 L 205.1416015625 21.5 L 205.1416015625 10 L 10 10 L 10 10" stroke-miterlimit="10" stroke-dasharray=""/></g><g><g><path fill="none" stroke="none"/><text fill="#000000" stroke="none" font-family="Arial" font-size="13px" font-style="normal" font-weight="normal" text-decoration="undefined" x="117.685791015625" y="19.5" text-anchor="middle" dominant-baseline="central" transform="matrix(1 0 0 1 -6 2)">SQ-001 Registrar paciente</text></g></g><g><g><path fill="none" stroke="none"/><text fill="#000000" stroke="none" font-family="Arial" font-size="13px" font-style="normal" font-weight="bold" text-decoration="undefined" x="27.864990234375" y="19.5" text-anchor="middle" dominant-baseline="central" transform="matrix(1 0 0 1 -6 2)">sd</text></g></g><g><rect fill="#C0C0C0" stroke="none" x="55" y="47" width="104" height="40" transform="matrix(1 0 0 1 -6 2)" fill-opacity="0.2"/></g><g><rect fill="#ffffff" stroke="none" x="48" y="40" width="104" height="40" transform="matrix(1 0 0 1 -6 2)"/></g><g><path fill="none" stroke="#000000" paint-order="fill stroke markers" d=" M 42 42 L 146 42 L 146 82 L 42 82 L 42 42 Z Z" stroke-miterlimit="10" stroke-dasharray=""/></g><g><g><path fill="none" stroke="none"/><text fill="#000000" stroke="none" font-family="Arial" font-size="13px" font-style="normal" font-weight="normal" text-decoration="undefined" x="100.5" y="51.5" text-anchor="middle" dominant-baseline="central" transform="matrix(1 0 0 1 -6 2)">«Actor»</text></g></g><g><g><path fill="none" stroke="none"/><text fill="#000000" stroke="none" font-family="Arial" font-size="13px" font-style="normal" font-weight="bold" text-decoration="undefined" x="100.5" y="66.5" text-anchor="middle" dominant-baseline="central" transform="matrix(1 0 0 1 -6 2)">Usuario</text></g></g><g><path fill="none" stroke="#000000" paint-order="fill stroke markers" d=" M 94.5 83 L 94.5 618" stroke-miterlimit="10" stroke-dasharray="3"/></g><g><rect fill="#C0C0C0" stroke="none" x="295" y="47" width="122.57177734375" height="40" transform="matrix(1 0 0 1 -6 2)" fill-opacity="0.2"/></g><g><rect fill="#ffffff" stroke="none" x="288" y="40" width="122.57177734375" height="40" transform="matrix(1 0 0 1 -6 2)"/></g><g><path fill="none" stroke="#000000" paint-order="fill stroke markers" d=" M 282 42 L 404.57177734375 42 L 404.57177734375 82 L 282 82 L 282 42 Z Z" stroke-miterlimit="10" stroke-dasharray=""/></g><g><g><path fill="none" stroke="none"/><text fill="#000000" stroke="none" font-family="Arial" font-size="13px" font-style="normal" font-weight="normal" text-decoration="undefined" x="349.785888671875" y="51.5" text-anchor="middle" dominant-baseline="central" transform="matrix(1 0 0 1 -6 2)">«Boundary»</text></g></g><g><g><path fill="none" stroke="none"/><text fill="#000000" stroke="none" font-family="Arial" font-size="13px" font-style="normal" font-weight="bold" text-decoration="undefined" x="349.785888671875" y="66.5" text-anchor="middle" dominant-baseline="central" transform="matrix(1 0 0 1 -6 2)">Inicio</text></g></g><g><path fill="none" stroke="#000000" paint-order="fill stroke markers" d=" M 343.5 83 L 343.5 618" stroke-miterlimit="10" stroke-dasharray="3"/></g><g><rect fill="#C0C0C0" stroke="none" x="591" y="47" width="150.76806640625" height="40" transform="matrix(1 0 0 1 -6 2)" fill-opacity="0.2"/></g><g><rect fill="#ffffff" stroke="none" x="584" y="40" width="150.76806640625" height="40" transform="matrix(1 0 0 1 -6 2)"/></g><g><path fill="none" stroke="#000000" paint-order="fill stroke markers" d=" M 578 42 L 728.76806640625 42 L 728.76806640625 82 L 578 82 L 578 42 Z Z" stroke-miterlimit="10" stroke-dasharray=""/></g><g><g><path fill="none" stroke="none"/><text fill="#000000" stroke="none" font-family="Arial" font-size="13px" font-style="normal" font-weight="normal" text-decoration="undefined" x="659.884033203125" y="51.5" text-anchor="middle" dominant-baseline="central" transform="matrix(1 0 0 1 -6 2)">«Boundary»</text></g></g><g><g><path fill="none" stroke="none"/><text fill="#000000" stroke="none" font-family="Arial" font-size="13px" font-style="normal" font-weight="bold" text-decoration="undefined" x="659.884033203125" y="66.5" text-anchor="middle" dominant-baseline="central" transform="matrix(1 0 0 1 -6 2)">Creación de paciente</text></g></g><g><path fill="none" stroke="#000000" paint-order="fill stroke markers" d=" M 653.5 83 L 653.5 632" stroke-miterlimit="10" stroke-dasharray="3"/></g><g><rect fill="#C0C0C0" stroke="none" x="871" y="47" width="150.76806640625" height="40" transform="matrix(1 0 0 1 -6 2)" fill-opacity="0.2"/></g><g><rect fill="#ffffff" stroke="none" x="864" y="40" width="150.76806640625" height="40" transform="matrix(1 0 0 1 -6 2)"/></g><g><path fill="none" stroke="#000000" paint-order="fill stroke markers" d=" M 858 42 L 1008.76806640625 42 L 1008.76806640625 82 L 858 82 L 858 42 Z Z" stroke-miterlimit="10" stroke-dasharray=""/></g><g><g><path fill="none" stroke="none"/><text fill="#000000" stroke="none" font-family="Arial" font-size="13px" font-style="normal" font-weight="normal" text-decoration="undefined" x="939.884033203125" y="51.5" text-anchor="middle" dominant-baseline="central" transform="matrix(1 0 0 1 -6 2)">«Control»</text></g></g><g><g><path fill="none" stroke="none"/><text fill="#000000" stroke="none" font-family="Arial" font-size="13px" font-style="normal" font-weight="bold" text-decoration="undefined" x="939.884033203125" y="66.5" text-anchor="middle" dominant-baseline="central" transform="matrix(1 0 0 1 -6 2)">Paciente</text></g></g><g><path fill="none" stroke="#000000" paint-order="fill stroke markers" d=" M 933.5 83 L 933.5 646" stroke-miterlimit="10" stroke-dasharray="3"/></g><g><rect fill="#C0C0C0" stroke="none" x="1135" y="47" width="113.20263671875" height="40" transform="matrix(1 0 0 1 -6 2)" fill-opacity="0.2"/></g><g><rect fill="#ffffff" stroke="none" x="1128" y="40" width="113.20263671875" height="40" transform="matrix(1 0 0 1 -6 2)"/></g><g><path fill="none" stroke="#000000" paint-order="fill stroke markers" d=" M 1122 42 L 1235.20263671875 42 L 1235.20263671875 82 L 1122 82 L 1122 42 Z Z" stroke-miterlimit="10" stroke-dasharray=""/></g><g><g><path fill="none" stroke="none"/><text fill="#000000" stroke="none" font-family="Arial" font-size="13px" font-style="normal" font-weight="normal" text-decoration="undefined" x="1185.101318359375" y="51.5" text-anchor="middle" dominant-baseline="central" transform="matrix(1 0 0 1 -6 2)">«Control»</text></g></g><g><g><path fill="none" stroke="none"/><text fill="#000000" stroke="none" font-family="Arial" font-size="13px" font-style="normal" font-weight="bold" text-decoration="undefined" x="1185.101318359375" y="66.5" text-anchor="middle" dominant-baseline="central" transform="matrix(1 0 0 1 -6 2)">Datos Paciente</text></g></g><g><path fill="none" stroke="#000000" paint-order="fill stroke markers" d=" M 1179.5 83 L 1179.5 681" stroke-miterlimit="10" stroke-dasharray="3"/></g><g><rect fill="#C0C0C0" stroke="none" x="1455" y="47" width="73.47265625" height="40" transform="matrix(1 0 0 1 -6 2)" fill-opacity="0.2"/></g><g><rect fill="#ffffff" stroke="none" x="1448" y="40" width="73.47265625" height="40" transform="matrix(1 0 0 1 -6 2)"/></g><g><path fill="none" stroke="#000000" paint-order="fill stroke markers" d=" M 1442 42 L 1515.47265625 42 L 1515.47265625 82 L 1442 82 L 1442 42 Z Z" stroke-miterlimit="10" stroke-dasharray=""/></g><g><g><path fill="none" stroke="none"/><text fill="#000000" stroke="none" font-family="Arial" font-size="13px" font-style="normal" font-weight="normal" text-decoration="undefined" x="1485.236328125" y="51.5" text-anchor="middle" dominant-baseline="central" transform="matrix(1 0 0 1 -6 2)">«Entity»</text></g></g><g><g><path fill="none" stroke="none"/><text fill="#000000" stroke="none" font-family="Arial" font-size="13px" font-style="normal" font-weight="bold" text-decoration="undefined" x="1485.236328125" y="66.5" text-anchor="middle" dominant-baseline="central" transform="matrix(1 0 0 1 -6 2)">Paciente</text></g></g><g><path fill="none" stroke="#000000" paint-order="fill stroke markers" d=" M 1479.5 83 L 1479.5 683" stroke-miterlimit="10" stroke-dasharray="3"/></g><g><path fill="none" stroke="#000000" paint-order="fill stroke markers" d=" M 344 202 L 646 202" stroke-miterlimit="10" stroke-dasharray=""/></g><g><path fill="#000000" stroke="none" paint-order="stroke fill markers" d=" M 635.8373251423759 206.209517756016 L 646 202 L 635.8373251423758 197.790482243984"/></g><g><path fill="none" stroke="#000000" paint-order="fill stroke markers" d=" M 635.8373251423759 206.209517756016 L 646 202 L 635.8373251423758 197.790482243984 L 635.8373251423759 206.209517756016" stroke-miterlimit="10" stroke-dasharray=""/></g><g><rect fill="#ffffff" stroke="none" x="462" y="184" width="78.04443359375" height="13" transform="matrix(1 0 0 1 -6 2)"/></g><g><g><path fill="none" stroke="none"/><text fill="#000000" stroke="none" font-family="Arial" font-size="13px" font-style="normal" font-weight="normal" text-decoration="undefined" x="501.022216796875" y="190.5" text-anchor="middle" dominant-baseline="central" transform="matrix(1 0 0 1 -6 2)">2 : Redirige</text></g></g><g><rect fill="#ffffff" stroke="none" x="652" y="200" width="14" height="40" transform="matrix(1 0 0 1 -6 2)"/></g><g><path fill="none" stroke="#000000" paint-order="fill stroke markers" d=" M 646 202 L 660 202 L 660 242 L 646 242 L 646 202 Z Z" stroke-miterlimit="10" stroke-dasharray=""/></g><g><path fill="none" stroke="#000000" paint-order="fill stroke markers" d=" M 95 114 L 336 114" stroke-miterlimit="10" stroke-dasharray=""/></g><g><path fill="#000000" stroke="none" paint-order="stroke fill markers" d=" M 325.83732514237585 118.20951775601598 L 336 114 L 325.83732514237585 109.79048224398402"/></g><g><path fill="none" stroke="#000000" paint-order="fill stroke markers" d=" M 325.83732514237585 118.20951775601598 L 336 114 L 325.83732514237585 109.79048224398402 L 325.83732514237585 118.20951775601598" stroke-miterlimit="10" stroke-dasharray=""/></g><g><rect fill="#ffffff" stroke="none" x="119" y="97" width="205.9814453125" height="11" transform="matrix(1 0 0 1 -6 2)"/></g><g><g><path fill="none" stroke="none"/><text fill="#000000" stroke="none" font-family="Arial" font-size="11px" font-style="normal" font-weight="normal" text-decoration="undefined" x="221.99072265625" y="102.5" text-anchor="middle" dominant-baseline="central" transform="matrix(1 0 0 1 -6 2)">1 : ClickBoton(boton)</text></g></g><g><rect fill="#ffffff" stroke="none" x="342" y="112" width="14" height="29" transform="matrix(1 0 0 1 -6 2)"/></g><g><path fill="none" stroke="#000000" paint-order="fill stroke markers" d=" M 336 114 L 350 114 L 350 143 L 336 143 L 336 114 Z Z" stroke-miterlimit="10" stroke-dasharray=""/></g><g><path fill="none" stroke="#000000" paint-order="fill stroke markers" d=" M 95 274 L 646 274" stroke-miterlimit="10" stroke-dasharray=""/></g><g><path fill="#000000" stroke="none" paint-order="stroke fill markers" d=" M 635.8373251423759 278.209517756016 L 646 274 L 635.8373251423758 269.790482243984"/></g><g><path fill="none" stroke="#000000" paint-order="fill stroke markers" d=" M 635.8373251423759 278.209517756016 L 646 274 L 635.8373251423758 269.790482243984 L 635.8373251423759 278.209517756016" stroke-miterlimit="10" stroke-dasharray=""/></g><g><rect fill="#ffffff" stroke="none" x="350" y="239" width="285" height="30" transform="matrix(1 0 0 1 -6 2)"/></g><g><g><path fill="none" stroke="none"/><text fill="#000000" stroke="none" font-family="Arial" font-size="10px" font-style="normal" font-weight="normal" text-decoration="undefined" x="492.5" y="244" text-anchor="middle" dominant-baseline="central" transform="matrix(1 0 0 1 -6 2)">3 : Llena formulario(nombres, apellidos, fecha de nacimiento,</text><text fill="#000000" stroke="none" font-family="Arial" font-size="10px" font-style="normal" font-weight="normal" text-decoration="undefined" x="492.5" y="254" text-anchor="middle" dominant-baseline="central" transform="matrix(1 0 0 1 -6 2)">lugar de nacimiento, estado civil, dirección, teléfono, email, DNI,</text><text fill="#000000" stroke="none" font-family="Arial" font-size="10px" font-style="normal" font-weight="normal" text-decoration="undefined" x="492.5" y="264" text-anchor="middle" dominant-baseline="central" transform="matrix(1 0 0 1 -6 2)">ocupación, lugar de trabajo y estudio, apoderado)</text></g></g><g><rect fill="#ffffff" stroke="none" x="652" y="272" width="14" height="29" transform="matrix(1 0 0 1 -6 2)"/></g><g><path fill="none" stroke="#000000" paint-order="fill stroke markers" d=" M 646 274 L 660 274 L 660 303 L 646 303 L 646 274 Z Z" stroke-miterlimit="10" stroke-dasharray=""/></g><g><path fill="none" stroke="#000000" paint-order="fill stroke markers" d=" M 95 338 L 646 338" stroke-miterlimit="10" stroke-dasharray=""/></g><g><path fill="#000000" stroke="none" paint-order="stroke fill markers" d=" M 635.8373251423759 342.209517756016 L 646 338 L 635.8373251423758 333.790482243984"/></g><g><path fill="none" stroke="#000000" paint-order="fill stroke markers" d=" M 635.8373251423759 342.209517756016 L 646 338 L 635.8373251423758 333.790482243984 L 635.8373251423759 342.209517756016" stroke-miterlimit="10" stroke-dasharray=""/></g><g><rect fill="#ffffff" stroke="none" x="428" y="319" width="104" height="10" transform="matrix(1 0 0 1 -6 2)"/></g><g><g><path fill="none" stroke="none"/><text fill="#000000" stroke="none" font-family="Arial" font-size="10px" font-style="normal" font-weight="normal" text-decoration="undefined" x="480" y="324" text-anchor="middle" dominant-baseline="central" transform="matrix(1 0 0 1 -6 2)">4 : RegistrarPaciente()</text></g></g><g><rect fill="#ffffff" stroke="none" x="652" y="336" width="14" height="29" transform="matrix(1 0 0 1 -6 2)"/></g><g><path fill="none" stroke="#000000" paint-order="fill stroke markers" d=" M 646 338 L 660 338 L 660 367 L 646 367 L 646 338 Z Z" stroke-miterlimit="10" stroke-dasharray=""/></g><g><path fill="none" stroke="#000000" paint-order="fill stroke markers" d=" M 654 378 L 684 378 L 684 398 L 660 398" stroke-miterlimit="10" stroke-dasharray=""/></g><g><path fill="#000000" stroke="none" paint-order="stroke fill markers" d=" M 670.1626748576241 393.790482243984 L 660 398 L 670.1626748576241 402.209517756016"/></g><g><path fill="none" stroke="#000000" paint-order="fill stroke markers" d=" M 670.1626748576241 393.790482243984 L 660 398 L 670.1626748576241 402.209517756016 L 670.1626748576241 393.790482243984" stroke-miterlimit="10" stroke-dasharray=""/></g><g><rect fill="#ffffff" stroke="none" x="696" y="362" width="216" height="50" transform="matrix(1 0 0 1 -6 2)"/></g><g><g><path fill="none" stroke="none"/><text fill="#000000" stroke="none" font-family="Arial" font-size="10px" font-style="normal" font-weight="normal" text-decoration="undefined" x="804" y="367" text-anchor="middle" dominant-baseline="central" transform="matrix(1 0 0 1 -6 2)">5 : validar = ValidarDatos(nombres, apellidos,</text><text fill="#000000" stroke="none" font-family="Arial" font-size="10px" font-style="normal" font-weight="normal" text-decoration="undefined" x="804" y="377" text-anchor="middle" dominant-baseline="central" transform="matrix(1 0 0 1 -6 2)">fecha de nacimiento, lugar de nacimiento,</text><text fill="#000000" stroke="none" font-family="Arial" font-size="10px" font-style="normal" font-weight="normal" text-decoration="undefined" x="804" y="387" text-anchor="middle" dominant-baseline="central" transform="matrix(1 0 0 1 -6 2)">estado civil, dirección, teléfono, email, DNI,</text><text fill="#000000" stroke="none" font-family="Arial" font-size="10px" font-style="normal" font-weight="normal" text-decoration="undefined" x="804" y="397" text-anchor="middle" dominant-baseline="central" transform="matrix(1 0 0 1 -6 2)">ocupación, lugar de trabajo y estudio,</text><text fill="#000000" stroke="none" font-family="Arial" font-size="10px" font-style="normal" font-weight="normal" text-decoration="undefined" x="804" y="407" text-anchor="middle" dominant-baseline="central" transform="matrix(1 0 0 1 -6 2)">apoderado)</text></g></g><g><rect fill="#ffffff" stroke="none" x="652" y="396" width="14" height="60" transform="matrix(1 0 0 1 -6 2)"/></g><g><path fill="none" stroke="#000000" paint-order="fill stroke markers" d=" M 646 398 L 660 398 L 660 458 L 646 458 L 646 398 Z Z" stroke-miterlimit="10" stroke-dasharray=""/></g><g><path fill="none" stroke="#000000" paint-order="fill stroke markers" d=" M 654 458 L 684 458 L 684 478 L 660 478" stroke-miterlimit="10" stroke-dasharray=""/></g><g><path fill="#000000" stroke="none" paint-order="stroke fill markers" d=" M 670.1626748576241 473.790482243984 L 660 478 L 670.1626748576241 482.209517756016"/></g><g><path fill="none" stroke="#000000" paint-order="fill stroke markers" d=" M 670.1626748576241 473.790482243984 L 660 478 L 670.1626748576241 482.209517756016 L 670.1626748576241 473.790482243984" stroke-miterlimit="10" stroke-dasharray=""/></g><g><rect fill="#ffffff" stroke="none" x="695" y="455" width="178" height="22" transform="matrix(1 0 0 1 -6 2)"/></g><g><g><path fill="none" stroke="none"/><text fill="#000000" stroke="none" font-family="Arial" font-size="11px" font-style="normal" font-weight="normal" text-decoration="undefined" x="784" y="460.5" text-anchor="middle" dominant-baseline="central" transform="matrix(1 0 0 1 -6 2)">6 : mostrar el mensaje "Termine de</text><text fill="#000000" stroke="none" font-family="Arial" font-size="11px" font-style="normal" font-weight="normal" text-decoration="undefined" x="784" y="471.5" text-anchor="middle" dominant-baseline="central" transform="matrix(1 0 0 1 -6 2)">ingresar la información, por favor"</text></g></g><g><rect fill="#ffffff" stroke="none" x="652" y="476" width="14" height="29" transform="matrix(1 0 0 1 -6 2)"/></g><g><path fill="none" stroke="#000000" paint-order="fill stroke markers" d=" M 646 478 L 660 478 L 660 507 L 646 507 L 646 478 Z Z" stroke-miterlimit="10" stroke-dasharray=""/></g><g><path fill="none" stroke="#000000" paint-order="fill stroke markers" d=" M 654 546 L 926 546" stroke-miterlimit="10" stroke-dasharray=""/></g><g><path fill="#000000" stroke="none" paint-order="stroke fill markers" d=" M 915.8373251423759 550.209517756016 L 926 546 L 915.8373251423758 541.790482243984"/></g><g><path fill="none" stroke="#000000" paint-order="fill stroke markers" d=" M 915.8373251423759 550.209517756016 L 926 546 L 915.8373251423758 541.790482243984 L 915.8373251423759 550.209517756016" stroke-miterlimit="10" stroke-dasharray=""/></g><g><rect fill="#ffffff" stroke="none" x="688" y="560" width="192" height="55" transform="matrix(1 0 0 1 -6 2)"/></g><g><g><path fill="none" stroke="none"/><text fill="#000000" stroke="none" font-family="Arial" font-size="11px" font-style="normal" font-weight="normal" text-decoration="undefined" x="784" y="565.5" text-anchor="middle" dominant-baseline="central" transform="matrix(1 0 0 1 -6 2)">7 : Registrar paciente(nombres,</text><text fill="#000000" stroke="none" font-family="Arial" font-size="11px" font-style="normal" font-weight="normal" text-decoration="undefined" x="784" y="576.5" text-anchor="middle" dominant-baseline="central" transform="matrix(1 0 0 1 -6 2)">apellidos, fecha de nacimiento, lugar</text><text fill="#000000" stroke="none" font-family="Arial" font-size="11px" font-style="normal" font-weight="normal" text-decoration="undefined" x="784" y="587.5" text-anchor="middle" dominant-baseline="central" transform="matrix(1 0 0 1 -6 2)">de nacimiento, estado civil, dirección,</text><text fill="#000000" stroke="none" font-family="Arial" font-size="11px" font-style="normal" font-weight="normal" text-decoration="undefined" x="784" y="598.5" text-anchor="middle" dominant-baseline="central" transform="matrix(1 0 0 1 -6 2)">teléfono, email, DNI, ocupación, lugar</text><text fill="#000000" stroke="none" font-family="Arial" font-size="11px" font-style="normal" font-weight="normal" text-decoration="undefined" x="784" y="609.5" text-anchor="middle" dominant-baseline="central" transform="matrix(1 0 0 1 -6 2)">de trabajo y estudio, apoderado)</text></g></g><g><rect fill="#ffffff" stroke="none" x="932" y="544" width="14" height="29" transform="matrix(1 0 0 1 -6 2)"/></g><g><path fill="none" stroke="#000000" paint-order="fill stroke markers" d=" M 926 546 L 940 546 L 940 575 L 926 575 L 926 546 Z Z" stroke-miterlimit="10" stroke-dasharray=""/></g><g><path fill="none" stroke="#000000" paint-order="fill stroke markers" d=" M 934 602 L 1172 602" stroke-miterlimit="10" stroke-dasharray=""/></g><g><path fill="#000000" stroke="none" paint-order="stroke fill markers" d=" M 1161.837325142376 606.209517756016 L 1172 602 L 1161.837325142376 597.790482243984"/></g><g><path fill="none" stroke="#000000" paint-order="fill stroke markers" d=" M 1161.837325142376 606.209517756016 L 1172 602 L 1161.837325142376 597.790482243984 L 1161.837325142376 606.209517756016" stroke-miterlimit="10" stroke-dasharray=""/></g><g><rect fill="#ffffff" stroke="none" x="970" y="544" width="201.85400390625" height="50" transform="matrix(1 0 0 1 -6 2)"/></g><g><g><path fill="none" stroke="none"/><text fill="#000000" stroke="none" font-family="Arial" font-size="10px" font-style="normal" font-weight="normal" text-decoration="undefined" x="1070.927001953125" y="549" text-anchor="middle" dominant-baseline="central" transform="matrix(1 0 0 1 -6 2)">8 : Registrar paciente(nombres, apellidos,</text><text fill="#000000" stroke="none" font-family="Arial" font-size="10px" font-style="normal" font-weight="normal" text-decoration="undefined" x="1070.927001953125" y="559" text-anchor="middle" dominant-baseline="central" transform="matrix(1 0 0 1 -6 2)">fecha de nacimiento, lugar de nacimiento,</text><text fill="#000000" stroke="none" font-family="Arial" font-size="10px" font-style="normal" font-weight="normal" text-decoration="undefined" x="1070.927001953125" y="569" text-anchor="middle" dominant-baseline="central" transform="matrix(1 0 0 1 -6 2)">estado civil, dirección, teléfono, email, DNI,</text><text fill="#000000" stroke="none" font-family="Arial" font-size="10px" font-style="normal" font-weight="normal" text-decoration="undefined" x="1070.927001953125" y="579" text-anchor="middle" dominant-baseline="central" transform="matrix(1 0 0 1 -6 2)">ocupación, lugar de trabajo y estudio,</text><text fill="#000000" stroke="none" font-family="Arial" font-size="10px" font-style="normal" font-weight="normal" text-decoration="undefined" x="1070.927001953125" y="589" text-anchor="middle" dominant-baseline="central" transform="matrix(1 0 0 1 -6 2)">apoderado)</text></g></g><g><rect fill="#ffffff" stroke="none" x="1178" y="600" width="14" height="29" transform="matrix(1 0 0 1 -6 2)"/></g><g><path fill="none" stroke="#000000" paint-order="fill stroke markers" d=" M 1172 602 L 1186 602 L 1186 631 L 1172 631 L 1172 602 Z Z" stroke-miterlimit="10" stroke-dasharray=""/></g><g><path fill="none" stroke="#000000" paint-order="fill stroke markers" d=" M 1180 637 L 1472 637" stroke-miterlimit="10" stroke-dasharray=""/></g><g><path fill="#000000" stroke="none" paint-order="stroke fill markers" d=" M 1461.837325142376 641.209517756016 L 1472 637 L 1461.837325142376 632.790482243984"/></g><g><path fill="none" stroke="#000000" paint-order="fill stroke markers" d=" M 1461.837325142376 641.209517756016 L 1472 637 L 1461.837325142376 632.790482243984 L 1461.837325142376 641.209517756016" stroke-miterlimit="10" stroke-dasharray=""/></g><g><rect fill="#ffffff" stroke="none" x="1208" y="581" width="242" height="40" transform="matrix(1 0 0 1 -6 2)"/></g><g><g><path fill="none" stroke="none"/><text fill="#000000" stroke="none" font-family="Arial" font-size="10px" font-style="normal" font-weight="normal" text-decoration="undefined" x="1329" y="586" text-anchor="middle" dominant-baseline="central" transform="matrix(1 0 0 1 -6 2)">9 : Registrar paciente(nombres, apellidos, fecha de</text><text fill="#000000" stroke="none" font-family="Arial" font-size="10px" font-style="normal" font-weight="normal" text-decoration="undefined" x="1329" y="596" text-anchor="middle" dominant-baseline="central" transform="matrix(1 0 0 1 -6 2)">nacimiento, lugar de nacimiento, estado civil,</text><text fill="#000000" stroke="none" font-family="Arial" font-size="10px" font-style="normal" font-weight="normal" text-decoration="undefined" x="1329" y="606" text-anchor="middle" dominant-baseline="central" transform="matrix(1 0 0 1 -6 2)">dirección, teléfono, email, DNI, ocupación, lugar de</text><text fill="#000000" stroke="none" font-family="Arial" font-size="10px" font-style="normal" font-weight="normal" text-decoration="undefined" x="1329" y="616" text-anchor="middle" dominant-baseline="central" transform="matrix(1 0 0 1 -6 2)">trabajo y estudio, apoderado)</text></g></g><g><rect fill="#ffffff" stroke="none" x="1478" y="635" width="14" height="29" transform="matrix(1 0 0 1 -6 2)"/></g><g><path fill="none" stroke="#000000" paint-order="fill stroke markers" d=" M 1472 637 L 1486 637 L 1486 666 L 1472 666 L 1472 637 Z Z" stroke-miterlimit="10" stroke-dasharray=""/></g><g><path fill="none" stroke="#000000" paint-order="fill stroke markers" d=" M 298 130 L 1523 130 L 1523 707 L 298 707 L 298 130" stroke-miterlimit="10" stroke-dasharray=""/></g><g><path fill="#ffffff" stroke="none" paint-order="stroke fill markers" d=" M 298 130 L 298 153 L 389.8671875 153 L 401.3671875 141.5 L 401.3671875 130 L 298 130"/></g><g><path fill="none" stroke="#000000" paint-order="fill stroke markers" d=" M 298 130 L 298 153 L 389.8671875 153 L 401.3671875 141.5 L 401.3671875 130 L 298 130 L 298 130" stroke-miterlimit="10" stroke-dasharray=""/></g><g><g><path fill="none" stroke="none"/><text fill="#000000" stroke="none" font-family="Arial" font-size="13px" font-style="normal" font-weight="normal" text-decoration="undefined" x="359.798583984375" y="139.5" text-anchor="middle" dominant-baseline="central" transform="matrix(1 0 0 1 -6 2)">ClickBoton</text></g></g><g><g><path fill="none" stroke="none"/><text fill="#000000" stroke="none" font-family="Arial" font-size="13px" font-style="normal" font-weight="bold" text-decoration="undefined" x="315.864990234375" y="139.5" text-anchor="middle" dominant-baseline="central" transform="matrix(1 0 0 1 -6 2)">alt</text></g></g><g><g><path fill="none" stroke="none"/><text fill="#000000" stroke="none" font-family="Arial" font-size="13px" font-style="normal" font-weight="normal" text-decoration="undefined" x="395.369873046875" y="172.5" text-anchor="middle" dominant-baseline="central" transform="matrix(1 0 0 1 -6 2)">[boton = AñadirPaciente]</text></g></g><g><path fill="none" stroke="#000000" paint-order="fill stroke markers" d=" M 554 418 L 1507 418 L 1507 683 L 554 683 L 554 418" stroke-miterlimit="10" stroke-dasharray=""/></g><g><path fill="#ffffff" stroke="none" paint-order="stroke fill markers" d=" M 554 418 L 554 441 L 658.64501953125 441 L 670.14501953125 429.5 L 670.14501953125 418 L 554 418"/></g><g><path fill="none" stroke="#000000" paint-order="fill stroke markers" d=" M 554 418 L 554 441 L 658.64501953125 441 L 670.14501953125 429.5 L 670.14501953125 418 L 554 418 L 554 418" stroke-miterlimit="10" stroke-dasharray=""/></g><g><g><path fill="none" stroke="none"/><text fill="#000000" stroke="none" font-family="Arial" font-size="13px" font-style="normal" font-weight="normal" text-decoration="undefined" x="622.1875" y="427.5" text-anchor="middle" dominant-baseline="central" transform="matrix(1 0 0 1 -6 2)">Validar datos</text></g></g><g><g><path fill="none" stroke="none"/><text fill="#000000" stroke="none" font-family="Arial" font-size="13px" font-style="normal" font-weight="bold" text-decoration="undefined" x="571.864990234375" y="427.5" text-anchor="middle" dominant-baseline="central" transform="matrix(1 0 0 1 -6 2)">alt</text></g></g><g><g><path fill="none" stroke="none"/><text fill="#000000" stroke="none" font-family="Arial" font-size="13px" font-style="normal" font-weight="normal" text-decoration="undefined" x="604.5654296875" y="460.5" text-anchor="middle" dominant-baseline="central" transform="matrix(1 0 0 1 -6 2)">[!validar]</text></g></g><g><path fill="none" stroke="#000000" paint-order="fill stroke markers" d=" M 554 530 L 1506 530" stroke-miterlimit="10" stroke-dasharray="10,3"/></g><g><g><path fill="none" stroke="none"/><text fill="#000000" stroke="none" font-family="Arial" font-size="13px" font-style="normal" font-weight="normal" text-decoration="undefined" x="602.759521484375" y="549.5" text-anchor="middle" dominant-baseline="central" transform="matrix(1 0 0 1 -6 2)">[validar]</text></g></g></g></svg>