<svg version="1.1" xmlns="http://www.w3.org/2000/svg" xmlns:xlink="http://www.w3.org/1999/xlink" width="828" height="412"><defs/><g><g><path fill="none" stroke="#000000" paint-order="fill stroke markers" d=" M 10 10 L 818 10 L 818 402 L 10 402 L 10 10" stroke-miterlimit="10" stroke-dasharray=""/></g><g><path fill="#ffffff" stroke="none" paint-order="stroke fill markers" d=" M 10 10 L 10 33 L 197.9833984375 33 L 209.4833984375 21.5 L 209.4833984375 10 L 10 10"/></g><g><path fill="none" stroke="#000000" paint-order="fill stroke markers" d=" M 10 10 L 10 33 L 197.9833984375 33 L 209.4833984375 21.5 L 209.4833984375 10 L 10 10 L 10 10" stroke-miterlimit="10" stroke-dasharray=""/></g><g><g><path fill="none" stroke="none"/><text fill="#000000" stroke="none" font-family="Arial" font-size="13px" font-style="normal" font-weight="normal" text-decoration="undefined" x="111.856689453125" y="19.5" text-anchor="middle" dominant-baseline="central" transform="matrix(1 0 0 1 2 2)">SQ-002 Consultar Paciente</text></g></g><g><g><path fill="none" stroke="none"/><text fill="#000000" stroke="none" font-family="Arial" font-size="13px" font-style="normal" font-weight="bold" text-decoration="undefined" x="19.864990234375" y="19.5" text-anchor="middle" dominant-baseline="central" transform="matrix(1 0 0 1 2 2)">sd</text></g></g><g><rect fill="#C0C0C0" stroke="none" x="39" y="47" width="72.736328125" height="40" transform="matrix(1 0 0 1 2 2)" fill-opacity="0.2"/></g><g><rect fill="#ffffff" stroke="none" x="32" y="40" width="72.736328125" height="40" transform="matrix(1 0 0 1 2 2)"/></g><g><path fill="none" stroke="#000000" paint-order="fill stroke markers" d=" M 34 42 L 106.736328125 42 L 106.736328125 82 L 34 82 L 34 42 Z Z" stroke-miterlimit="10" stroke-dasharray=""/></g><g><g><path fill="none" stroke="none"/><text fill="#000000" stroke="none" font-family="Arial" font-size="13px" font-style="normal" font-weight="normal" text-decoration="undefined" x="68.8681640625" y="51.5" text-anchor="middle" dominant-baseline="central" transform="matrix(1 0 0 1 2 2)">«Actor»</text></g></g><g><g><path fill="none" stroke="none"/><text fill="#000000" stroke="none" font-family="Arial" font-size="13px" font-style="normal" font-weight="bold" text-decoration="undefined" x="68.8681640625" y="66.5" text-anchor="middle" dominant-baseline="central" transform="matrix(1 0 0 1 2 2)">Usuario</text></g></g><g><path fill="none" stroke="#000000" paint-order="fill stroke markers" d=" M 70.5 83 L 70.5 362" stroke-miterlimit="10" stroke-dasharray="3"/></g><g><rect fill="#C0C0C0" stroke="none" x="255" y="47" width="90.10986328125" height="40" transform="matrix(1 0 0 1 2 2)" fill-opacity="0.2"/></g><g><rect fill="#ffffff" stroke="none" x="248" y="40" width="90.10986328125" height="40" transform="matrix(1 0 0 1 2 2)"/></g><g><path fill="none" stroke="#000000" paint-order="fill stroke markers" d=" M 250 42 L 340.10986328125 42 L 340.10986328125 82 L 250 82 L 250 42 Z Z" stroke-miterlimit="10" stroke-dasharray=""/></g><g><g><path fill="none" stroke="none"/><text fill="#000000" stroke="none" font-family="Arial" font-size="13px" font-style="normal" font-weight="normal" text-decoration="undefined" x="293.554931640625" y="51.5" text-anchor="middle" dominant-baseline="central" transform="matrix(1 0 0 1 2 2)">«Boundary»</text></g></g><g><g><path fill="none" stroke="none"/><text fill="#000000" stroke="none" font-family="Arial" font-size="13px" font-style="normal" font-weight="bold" text-decoration="undefined" x="293.554931640625" y="66.5" text-anchor="middle" dominant-baseline="central" transform="matrix(1 0 0 1 2 2)">Inicio</text></g></g><g><path fill="none" stroke="#000000" paint-order="fill stroke markers" d=" M 295.5 83 L 295.5 362" stroke-miterlimit="10" stroke-dasharray="3"/></g><g><rect fill="#C0C0C0" stroke="none" x="487" y="47" width="76.3671875" height="40" transform="matrix(1 0 0 1 2 2)" fill-opacity="0.2"/></g><g><rect fill="#ffffff" stroke="none" x="480" y="40" width="76.3671875" height="40" transform="matrix(1 0 0 1 2 2)"/></g><g><path fill="none" stroke="#000000" paint-order="fill stroke markers" d=" M 482 42 L 558.3671875 42 L 558.3671875 82 L 482 82 L 482 42 Z Z" stroke-miterlimit="10" stroke-dasharray=""/></g><g><g><path fill="none" stroke="none"/><text fill="#000000" stroke="none" font-family="Arial" font-size="13px" font-style="normal" font-weight="normal" text-decoration="undefined" x="518.68359375" y="51.5" text-anchor="middle" dominant-baseline="central" transform="matrix(1 0 0 1 2 2)">«Control»</text></g></g><g><g><path fill="none" stroke="none"/><text fill="#000000" stroke="none" font-family="Arial" font-size="13px" font-style="normal" font-weight="bold" text-decoration="undefined" x="518.68359375" y="66.5" text-anchor="middle" dominant-baseline="central" transform="matrix(1 0 0 1 2 2)">Paciente</text></g></g><g><path fill="none" stroke="#000000" paint-order="fill stroke markers" d=" M 520.5 83 L 520.5 370" stroke-miterlimit="10" stroke-dasharray="3"/></g><g><rect fill="#C0C0C0" stroke="none" x="711" y="47" width="73.47265625" height="40" transform="matrix(1 0 0 1 2 2)" fill-opacity="0.2"/></g><g><rect fill="#ffffff" stroke="none" x="704" y="40" width="73.47265625" height="40" transform="matrix(1 0 0 1 2 2)"/></g><g><path fill="none" stroke="#000000" paint-order="fill stroke markers" d=" M 706 42 L 779.47265625 42 L 779.47265625 82 L 706 82 L 706 42 Z Z" stroke-miterlimit="10" stroke-dasharray=""/></g><g><g><path fill="none" stroke="none"/><text fill="#000000" stroke="none" font-family="Arial" font-size="13px" font-style="normal" font-weight="normal" text-decoration="undefined" x="741.236328125" y="51.5" text-anchor="middle" dominant-baseline="central" transform="matrix(1 0 0 1 2 2)">«Entity»</text></g></g><g><g><path fill="none" stroke="none"/><text fill="#000000" stroke="none" font-family="Arial" font-size="13px" font-style="normal" font-weight="bold" text-decoration="undefined" x="741.236328125" y="66.5" text-anchor="middle" dominant-baseline="central" transform="matrix(1 0 0 1 2 2)">Paciente</text></g></g><g><path fill="none" stroke="#000000" paint-order="fill stroke markers" d=" M 743.5 83 L 743.5 370" stroke-miterlimit="10" stroke-dasharray="3"/></g><g><path fill="none" stroke="#000000" paint-order="fill stroke markers" d=" M 71 115 L 288 115" stroke-miterlimit="10" stroke-dasharray=""/></g><g><path fill="#000000" stroke="none" paint-order="stroke fill markers" d=" M 277.83732514237585 119.20951775601598 L 288 115 L 277.83732514237585 110.79048224398402"/></g><g><path fill="none" stroke="#000000" paint-order="fill stroke markers" d=" M 277.83732514237585 119.20951775601598 L 288 115 L 277.83732514237585 110.79048224398402 L 277.83732514237585 119.20951775601598" stroke-miterlimit="10" stroke-dasharray=""/></g><g><rect fill="#ffffff" stroke="none" x="72" y="97" width="210.28515625" height="13" transform="matrix(1 0 0 1 2 2)"/></g><g><g><path fill="none" stroke="none"/><text fill="#000000" stroke="none" font-family="Arial" font-size="13px" font-style="normal" font-weight="normal" text-decoration="undefined" x="177.142578125" y="103.5" text-anchor="middle" dominant-baseline="central" transform="matrix(1 0 0 1 2 2)">1 : Busca paciente(nombrePaciente)</text></g></g><g><rect fill="#ffffff" stroke="none" x="286" y="113" width="14" height="28" transform="matrix(1 0 0 1 2 2)"/></g><g><path fill="none" stroke="#000000" paint-order="fill stroke markers" d=" M 288 115 L 302 115 L 302 143 L 288 143 L 288 115 Z Z" stroke-miterlimit="10" stroke-dasharray=""/></g><g><path fill="none" stroke="#000000" paint-order="fill stroke markers" d=" M 296 159 L 513 159" stroke-miterlimit="10" stroke-dasharray=""/></g><g><path fill="#000000" stroke="none" paint-order="stroke fill markers" d=" M 502.83732514237585 163.209517756016 L 513 159 L 502.83732514237585 154.790482243984"/></g><g><path fill="none" stroke="#000000" paint-order="fill stroke markers" d=" M 502.83732514237585 163.209517756016 L 513 159 L 502.83732514237585 154.790482243984 L 502.83732514237585 163.209517756016" stroke-miterlimit="10" stroke-dasharray=""/></g><g><rect fill="#ffffff" stroke="none" x="297" y="141" width="210.28515625" height="13" transform="matrix(1 0 0 1 2 2)"/></g><g><g><path fill="none" stroke="none"/><text fill="#000000" stroke="none" font-family="Arial" font-size="13px" font-style="normal" font-weight="normal" text-decoration="undefined" x="402.142578125" y="147.5" text-anchor="middle" dominant-baseline="central" transform="matrix(1 0 0 1 2 2)">2 : Busca paciente(nombrePaciente)</text></g></g><g><rect fill="#ffffff" stroke="none" x="511" y="157" width="14" height="28" transform="matrix(1 0 0 1 2 2)"/></g><g><path fill="none" stroke="#000000" paint-order="fill stroke markers" d=" M 513 159 L 527 159 L 527 187 L 513 187 L 513 159 Z Z" stroke-miterlimit="10" stroke-dasharray=""/></g><g><path fill="none" stroke="#000000" paint-order="fill stroke markers" d=" M 521 205 L 736 205" stroke-miterlimit="10" stroke-dasharray=""/></g><g><path fill="#000000" stroke="none" paint-order="stroke fill markers" d=" M 725.8373251423759 209.209517756016 L 736 205 L 725.8373251423758 200.790482243984"/></g><g><path fill="none" stroke="#000000" paint-order="fill stroke markers" d=" M 725.8373251423759 209.209517756016 L 736 205 L 725.8373251423758 200.790482243984 L 725.8373251423759 209.209517756016" stroke-miterlimit="10" stroke-dasharray=""/></g><g><rect fill="#ffffff" stroke="none" x="475" y="187" width="303.14501953125" height="13" transform="matrix(1 0 0 1 2 2)"/></g><g><g><path fill="none" stroke="none"/><text fill="#000000" stroke="none" font-family="Arial" font-size="13px" font-style="normal" font-weight="normal" text-decoration="undefined" x="626.572509765625" y="193.5" text-anchor="middle" dominant-baseline="central" transform="matrix(1 0 0 1 2 2)">3 : coincidencias = Busca paciente(nombrePaciente)</text></g></g><g><rect fill="#ffffff" stroke="none" x="734" y="203" width="14" height="28" transform="matrix(1 0 0 1 2 2)"/></g><g><path fill="none" stroke="#000000" paint-order="fill stroke markers" d=" M 736 205 L 750 205 L 750 233 L 736 233 L 736 205 Z Z" stroke-miterlimit="10" stroke-dasharray=""/></g><g><path fill="none" stroke="#000000" paint-order="fill stroke markers" d=" M 520 244 L 302 244" stroke-miterlimit="10" stroke-dasharray=""/></g><g><path fill="#000000" stroke="none" paint-order="stroke fill markers" d=" M 312.16267485762415 239.790482243984 L 302 244 L 312.16267485762415 248.209517756016"/></g><g><path fill="none" stroke="#000000" paint-order="fill stroke markers" d=" M 312.16267485762415 239.790482243984 L 302 244 L 312.16267485762415 248.209517756016 L 312.16267485762415 239.790482243984" stroke-miterlimit="10" stroke-dasharray=""/></g><g><rect fill="#ffffff" stroke="none" x="298" y="246" width="220.37158203125" height="13" transform="matrix(1 0 0 1 2 2)"/></g><g><g><path fill="none" stroke="none"/><text fill="#000000" stroke="none" font-family="Arial" font-size="13px" font-style="normal" font-weight="normal" text-decoration="undefined" x="408.185791015625" y="252.5" text-anchor="middle" dominant-baseline="central" transform="matrix(1 0 0 1 2 2)">4 : MostrarCoincidencias(coindencias)</text></g></g><g><rect fill="#ffffff" stroke="none" x="286" y="242" width="14" height="28" transform="matrix(1 0 0 1 2 2)"/></g><g><path fill="none" stroke="#000000" paint-order="fill stroke markers" d=" M 288 244 L 302 244 L 302 272 L 288 272 L 288 244 Z Z" stroke-miterlimit="10" stroke-dasharray=""/></g></g></svg>