<svg version="1.1" xmlns="http://www.w3.org/2000/svg" xmlns:xlink="http://www.w3.org/1999/xlink" width="286" height="169"><defs/><g><g><rect fill="#C0C0C0" stroke="none" x="219" y="91" width="81" height="37" transform="matrix(1 0 0 1 -18 -18)" fill-opacity="0.2"/></g><g><rect fill="#ffffff" stroke="none" x="212" y="84" width="81" height="37" transform="matrix(1 0 0 1 -18 -18)"/></g><g><path fill="none" stroke="#000000" paint-order="fill stroke markers" d=" M 194 66 L 275 66 L 275 103 L 194 103 L 194 66 Z Z" stroke-miterlimit="10" stroke-dasharray=""/></g><g><g><path fill="none" stroke="none"/><text fill="#000000" stroke="none" font-family="Arial" font-size="12px" font-style="normal" font-weight="normal" text-decoration="undefined" x="253" y="95" text-anchor="middle" dominant-baseline="central" transform="matrix(1 0 0 1 -18 -18)">«stereotype»</text></g></g><g><g><path fill="none" stroke="none"/><text fill="#000000" stroke="none" font-family="Arial" font-size="12px" font-style="normal" font-weight="bold" text-decoration="undefined" x="253" y="109" text-anchor="middle" dominant-baseline="central" transform="matrix(1 0 0 1 -18 -18)">entity</text></g></g><g><rect fill="#C0C0C0" stroke="none" x="35" y="35" width="89" height="149" transform="matrix(1 0 0 1 -18 -18)" fill-opacity="0.2"/></g><g><rect fill="#e2e2e2" stroke="none" x="28" y="28" width="89" height="149" transform="matrix(1 0 0 1 -18 -18)"/></g><g><path fill="none" stroke="#000000" paint-order="fill stroke markers" d=" M 10 10 L 99 10 L 99 159 L 10 159 L 10 10 Z Z" stroke-miterlimit="10" stroke-dasharray=""/></g><g><g><path fill="none" stroke="none"/><text fill="#000000" stroke="none" font-family="Arial" font-size="12px" font-style="normal" font-weight="normal" text-decoration="undefined" x="73" y="39" text-anchor="middle" dominant-baseline="central" transform="matrix(1 0 0 1 -18 -18)">«metaClass»</text></g></g><g><g><path fill="none" stroke="none"/><text fill="#000000" stroke="none" font-family="Arial" font-size="12px" font-style="normal" font-weight="bold" text-decoration="undefined" x="73" y="53" text-anchor="middle" dominant-baseline="central" transform="matrix(1 0 0 1 -18 -18)">UMLClass</text></g></g><g><path fill="none" stroke="#000000" paint-order="fill stroke markers" d=" M 194 82 L 99 82" stroke-miterlimit="10" stroke-dasharray=""/></g><g><path fill="#000000" stroke="none" paint-order="stroke fill markers" d=" M 109.16267485762415 77.79048224398402 L 99 82 L 109.16267485762415 86.20951775601598"/></g><g><path fill="none" stroke="#000000" paint-order="fill stroke markers" d=" M 109.16267485762415 77.79048224398402 L 99 82 L 109.16267485762415 86.20951775601598 L 109.16267485762415 77.79048224398402" stroke-miterlimit="10" stroke-dasharray=""/></g><g><rect fill="#C0C0C0" stroke="none" x="219" y="39" width="81" height="37" transform="matrix(1 0 0 1 -18 -18)" fill-opacity="0.2"/></g><g><rect fill="#ffffff" stroke="none" x="212" y="32" width="81" height="37" transform="matrix(1 0 0 1 -18 -18)"/></g><g><path fill="none" stroke="#000000" paint-order="fill stroke markers" d=" M 194 14 L 275 14 L 275 51 L 194 51 L 194 14 Z Z" stroke-miterlimit="10" stroke-dasharray=""/></g><g><g><path fill="none" stroke="none"/><text fill="#000000" stroke="none" font-family="Arial" font-size="12px" font-style="normal" font-weight="normal" text-decoration="undefined" x="253" y="43" text-anchor="middle" dominant-baseline="central" transform="matrix(1 0 0 1 -18 -18)">«stereotype»</text></g></g><g><g><path fill="none" stroke="none"/><text fill="#000000" stroke="none" font-family="Arial" font-size="12px" font-style="normal" font-weight="bold" text-decoration="undefined" x="253" y="57" text-anchor="middle" dominant-baseline="central" transform="matrix(1 0 0 1 -18 -18)">control</text></g></g><g><path fill="none" stroke="#000000" paint-order="fill stroke markers" d=" M 194 34 L 99 34" stroke-miterlimit="10" stroke-dasharray=""/></g><g><path fill="#000000" stroke="none" paint-order="stroke fill markers" d=" M 109.16267485762415 29.790482243984016 L 99 34 L 109.16267485762415 38.209517756015984"/></g><g><path fill="none" stroke="#000000" paint-order="fill stroke markers" d=" M 109.16267485762415 29.790482243984016 L 99 34 L 109.16267485762415 38.209517756015984 L 109.16267485762415 29.790482243984016" stroke-miterlimit="10" stroke-dasharray=""/></g><g><rect fill="#C0C0C0" stroke="none" x="219" y="143" width="81" height="37" transform="matrix(1 0 0 1 -18 -18)" fill-opacity="0.2"/></g><g><rect fill="#ffffff" stroke="none" x="212" y="136" width="81" height="37" transform="matrix(1 0 0 1 -18 -18)"/></g><g><path fill="none" stroke="#000000" paint-order="fill stroke markers" d=" M 194 118 L 275 118 L 275 155 L 194 155 L 194 118 Z Z" stroke-miterlimit="10" stroke-dasharray=""/></g><g><g><path fill="none" stroke="none"/><text fill="#000000" stroke="none" font-family="Arial" font-size="12px" font-style="normal" font-weight="normal" text-decoration="undefined" x="253" y="147" text-anchor="middle" dominant-baseline="central" transform="matrix(1 0 0 1 -18 -18)">«stereotype»</text></g></g><g><g><path fill="none" stroke="none"/><text fill="#000000" stroke="none" font-family="Arial" font-size="12px" font-style="normal" font-weight="bold" text-decoration="undefined" x="253" y="161" text-anchor="middle" dominant-baseline="central" transform="matrix(1 0 0 1 -18 -18)">boundary</text></g></g><g><path fill="none" stroke="#000000" paint-order="fill stroke markers" d=" M 194 138 L 99 138" stroke-miterlimit="10" stroke-dasharray=""/></g><g><path fill="#000000" stroke="none" paint-order="stroke fill markers" d=" M 109.16267485762415 133.790482243984 L 99 138 L 109.16267485762415 142.209517756016"/></g><g><path fill="none" stroke="#000000" paint-order="fill stroke markers" d=" M 109.16267485762415 133.790482243984 L 99 138 L 109.16267485762415 142.209517756016 L 109.16267485762415 133.790482243984" stroke-miterlimit="10" stroke-dasharray=""/></g></g></svg>