<svg version="1.1" xmlns="http://www.w3.org/2000/svg" xmlns:xlink="http://www.w3.org/1999/xlink" width="1451.4052734375" height="899"><defs/><g><g><path fill="#ffffff" stroke="none" paint-order="stroke fill markers" d=" M 1345.93994140625 180 C 1345.93994140625 171.1634432 1353.10338460625 164 1361.93994140625 164 C 1370.77649820625 164 1377.93994140625 171.1634432 1377.93994140625 180 C 1377.93994140625 188.8365568 1370.77649820625 196 1361.93994140625 196 C 1353.10338460625 196 1345.93994140625 188.8365568 1345.93994140625 180 Z"/></g><g><path fill="none" stroke="#000000" paint-order="fill stroke markers" d=" M 1345.93994140625 180 C 1345.93994140625 171.1634432 1353.10338460625 164 1361.93994140625 164 C 1370.77649820625 164 1377.93994140625 171.1634432 1377.93994140625 180 C 1377.93994140625 188.8365568 1370.77649820625 196 1361.93994140625 196 C 1353.10338460625 196 1345.93994140625 188.8365568 1345.93994140625 180 Z" stroke-miterlimit="10" stroke-dasharray=""/></g><g><path fill="none" stroke="#000000" paint-order="fill stroke markers" d=" M 1345.93994140625 196 L 1377.93994140625 196" stroke-miterlimit="10" stroke-dasharray=""/></g><g><g><path fill="none" stroke="none"/><text fill="#000000" stroke="none" font-family="Arial" font-size="13px" font-style="normal" font-weight="bold" text-decoration="undefined" x="1368.43994140625" y="213.5" text-anchor="middle" dominant-baseline="central" transform="matrix(1 0 0 1 -6 0)">CA-001 Paciente</text></g></g><g><path fill="#ffffff" stroke="none" paint-order="stroke fill markers" d=" M 1345.70263671875 260 C 1345.70263671875 251.1634432 1352.86607991875 244 1361.70263671875 244 C 1370.53919351875 244 1377.70263671875 251.1634432 1377.70263671875 260 C 1377.70263671875 268.8365568 1370.53919351875 276 1361.70263671875 276 C 1352.86607991875 276 1345.70263671875 268.8365568 1345.70263671875 260 Z"/></g><g><path fill="none" stroke="#000000" paint-order="fill stroke markers" d=" M 1345.70263671875 260 C 1345.70263671875 251.1634432 1352.86607991875 244 1361.70263671875 244 C 1370.53919351875 244 1377.70263671875 251.1634432 1377.70263671875 260 C 1377.70263671875 268.8365568 1370.53919351875 276 1361.70263671875 276 C 1352.86607991875 276 1345.70263671875 268.8365568 1345.70263671875 260 Z" stroke-miterlimit="10" stroke-dasharray=""/></g><g><path fill="none" stroke="#000000" paint-order="fill stroke markers" d=" M 1345.70263671875 276 L 1377.70263671875 276" stroke-miterlimit="10" stroke-dasharray=""/></g><g><g><path fill="none" stroke="none"/><text fill="#000000" stroke="none" font-family="Arial" font-size="13px" font-style="normal" font-weight="bold" text-decoration="undefined" x="1368.20263671875" y="293.5" text-anchor="middle" dominant-baseline="central" transform="matrix(1 0 0 1 -6 0)">CA-005 Examen auxiliar</text></g></g><g><path fill="#ffffff" stroke="none" paint-order="stroke fill markers" d=" M 1346.04541015625 348 C 1346.04541015625 339.1634432 1353.20885335625 332 1362.04541015625 332 C 1370.88196695625 332 1378.04541015625 339.1634432 1378.04541015625 348 C 1378.04541015625 356.8365568 1370.88196695625 364 1362.04541015625 364 C 1353.20885335625 364 1346.04541015625 356.8365568 1346.04541015625 348 Z"/></g><g><path fill="none" stroke="#000000" paint-order="fill stroke markers" d=" M 1346.04541015625 348 C 1346.04541015625 339.1634432 1353.20885335625 332 1362.04541015625 332 C 1370.88196695625 332 1378.04541015625 339.1634432 1378.04541015625 348 C 1378.04541015625 356.8365568 1370.88196695625 364 1362.04541015625 364 C 1353.20885335625 364 1346.04541015625 356.8365568 1346.04541015625 348 Z" stroke-miterlimit="10" stroke-dasharray=""/></g><g><path fill="none" stroke="#000000" paint-order="fill stroke markers" d=" M 1346.04541015625 364 L 1378.04541015625 364" stroke-miterlimit="10" stroke-dasharray=""/></g><g><g><path fill="none" stroke="none"/><text fill="#000000" stroke="none" font-family="Arial" font-size="13px" font-style="normal" font-weight="bold" text-decoration="undefined" x="1368.54541015625" y="381.5" text-anchor="middle" dominant-baseline="central" transform="matrix(1 0 0 1 -6 0)">CA-006 Tratamiento</text></g></g><g><path fill="#ffffff" stroke="none" paint-order="stroke fill markers" d=" M 1345.515869140625 428 C 1345.515869140625 419.1634432 1352.679312340625 412 1361.515869140625 412 C 1370.352425940625 412 1377.515869140625 419.1634432 1377.515869140625 428 C 1377.515869140625 436.8365568 1370.352425940625 444 1361.515869140625 444 C 1352.679312340625 444 1345.515869140625 436.8365568 1345.515869140625 428 Z"/></g><g><path fill="none" stroke="#000000" paint-order="fill stroke markers" d=" M 1345.515869140625 428 C 1345.515869140625 419.1634432 1352.679312340625 412 1361.515869140625 412 C 1370.352425940625 412 1377.515869140625 419.1634432 1377.515869140625 428 C 1377.515869140625 436.8365568 1370.352425940625 444 1361.515869140625 444 C 1352.679312340625 444 1345.515869140625 436.8365568 1345.515869140625 428 Z" stroke-miterlimit="10" stroke-dasharray=""/></g><g><path fill="none" stroke="#000000" paint-order="fill stroke markers" d=" M 1345.515869140625 444 L 1377.515869140625 444" stroke-miterlimit="10" stroke-dasharray=""/></g><g><g><path fill="none" stroke="none"/><text fill="#000000" stroke="none" font-family="Arial" font-size="13px" font-style="normal" font-weight="bold" text-decoration="undefined" x="1368.015869140625" y="461.5" text-anchor="middle" dominant-baseline="central" transform="matrix(1 0 0 1 -6 0)">CA-007 Sesión</text></g></g><g><path fill="#ffffff" stroke="none" paint-order="stroke fill markers" d=" M 1345.8154296875 732 C 1345.8154296875 723.1634432 1352.9788728875 716 1361.8154296875 716 C 1370.6519864875 716 1377.8154296875 723.1634432 1377.8154296875 732 C 1377.8154296875 740.8365568 1370.6519864875 748 1361.8154296875 748 C 1352.9788728875 748 1345.8154296875 740.8365568 1345.8154296875 732 Z"/></g><g><path fill="none" stroke="#000000" paint-order="fill stroke markers" d=" M 1345.8154296875 732 C 1345.8154296875 723.1634432 1352.9788728875 716 1361.8154296875 716 C 1370.6519864875 716 1377.8154296875 723.1634432 1377.8154296875 732 C 1377.8154296875 740.8365568 1370.6519864875 748 1361.8154296875 748 C 1352.9788728875 748 1345.8154296875 740.8365568 1345.8154296875 732 Z" stroke-miterlimit="10" stroke-dasharray=""/></g><g><path fill="none" stroke="#000000" paint-order="fill stroke markers" d=" M 1345.8154296875 748 L 1377.8154296875 748" stroke-miterlimit="10" stroke-dasharray=""/></g><g><g><path fill="none" stroke="none"/><text fill="#000000" stroke="none" font-family="Arial" font-size="13px" font-style="normal" font-weight="bold" text-decoration="undefined" x="1368.3154296875" y="765.5" text-anchor="middle" dominant-baseline="central" transform="matrix(1 0 0 1 -6 0)">CA-008 Odontograma</text></g></g><g><path fill="#ffffff" stroke="none" paint-order="stroke fill markers" d=" M 1342.574951171875 572 C 1342.574951171875 563.1634432 1349.738394371875 556 1358.574951171875 556 C 1367.411507971875 556 1374.574951171875 563.1634432 1374.574951171875 572 C 1374.574951171875 580.8365568 1367.411507971875 588 1358.574951171875 588 C 1349.738394371875 588 1342.574951171875 580.8365568 1342.574951171875 572 Z"/></g><g><path fill="none" stroke="#000000" paint-order="fill stroke markers" d=" M 1342.574951171875 572 C 1342.574951171875 563.1634432 1349.738394371875 556 1358.574951171875 556 C 1367.411507971875 556 1374.574951171875 563.1634432 1374.574951171875 572 C 1374.574951171875 580.8365568 1367.411507971875 588 1358.574951171875 588 C 1349.738394371875 588 1342.574951171875 580.8365568 1342.574951171875 572 Z" stroke-miterlimit="10" stroke-dasharray=""/></g><g><path fill="none" stroke="#000000" paint-order="fill stroke markers" d=" M 1342.574951171875 588 L 1374.574951171875 588" stroke-miterlimit="10" stroke-dasharray=""/></g><g><g><path fill="none" stroke="none"/><text fill="#000000" stroke="none" font-family="Arial" font-size="13px" font-style="normal" font-weight="bold" text-decoration="undefined" x="1365.074951171875" y="605.5" text-anchor="middle" dominant-baseline="central" transform="matrix(1 0 0 1 -6 0)">CA-009 Presupuesto</text></g></g><g><path fill="#ffffff" stroke="none" paint-order="stroke fill markers" d=" M 895.410400390625 116 C 895.410400390625 107.715728 902.126128390625 101 910.410400390625 101 C 918.694672390625 101 925.410400390625 107.715728 925.410400390625 116 C 925.410400390625 124.284272 918.694672390625 131 910.410400390625 131 C 902.126128390625 131 895.410400390625 124.284272 895.410400390625 116 Z"/></g><g><path fill="none" stroke="#000000" paint-order="fill stroke markers" d=" M 895.410400390625 116 C 895.410400390625 107.715728 902.126128390625 101 910.410400390625 101 C 918.694672390625 101 925.410400390625 107.715728 925.410400390625 116 C 925.410400390625 124.284272 918.694672390625 131 910.410400390625 131 C 902.126128390625 131 895.410400390625 124.284272 895.410400390625 116 Z" stroke-miterlimit="10" stroke-dasharray=""/></g><g><path fill="none" stroke="#000000" paint-order="fill stroke markers" d=" M 910.410400390625 101 L 915.410400390625 96" stroke-miterlimit="10" stroke-dasharray=""/></g><g><path fill="none" stroke="#000000" paint-order="fill stroke markers" d=" M 910.410400390625 101 L 915.410400390625 106" stroke-miterlimit="10" stroke-dasharray=""/></g><g><g><path fill="none" stroke="none"/><text fill="#000000" stroke="none" font-family="Arial" font-size="13px" font-style="normal" font-weight="bold" text-decoration="undefined" x="916.910400390625" y="149.5" text-anchor="middle" dominant-baseline="central" transform="matrix(1 0 0 1 -6 0)">CA-012 Controlador sistema</text></g></g><g><path fill="#ffffff" stroke="none" paint-order="stroke fill markers" d=" M 733.57177734375 252 C 733.57177734375 243.715728 740.28750534375 237 748.57177734375 237 C 756.85604934375 237 763.57177734375 243.715728 763.57177734375 252 C 763.57177734375 260.284272 756.85604934375 267 748.57177734375 267 C 740.28750534375 267 733.57177734375 260.284272 733.57177734375 252 Z"/></g><g><path fill="none" stroke="#000000" paint-order="fill stroke markers" d=" M 733.57177734375 252 C 733.57177734375 243.715728 740.28750534375 237 748.57177734375 237 C 756.85604934375 237 763.57177734375 243.715728 763.57177734375 252 C 763.57177734375 260.284272 756.85604934375 267 748.57177734375 267 C 740.28750534375 267 733.57177734375 260.284272 733.57177734375 252 Z" stroke-miterlimit="10" stroke-dasharray=""/></g><g><path fill="none" stroke="#000000" paint-order="fill stroke markers" d=" M 748.57177734375 237 L 753.57177734375 232" stroke-miterlimit="10" stroke-dasharray=""/></g><g><path fill="none" stroke="#000000" paint-order="fill stroke markers" d=" M 748.57177734375 237 L 753.57177734375 242" stroke-miterlimit="10" stroke-dasharray=""/></g><g><g><path fill="none" stroke="none"/><text fill="#000000" stroke="none" font-family="Arial" font-size="13px" font-style="normal" font-weight="bold" text-decoration="undefined" x="755.07177734375" y="285.5" text-anchor="middle" dominant-baseline="central" transform="matrix(1 0 0 1 -6 0)">CA-013 Controlador paciente</text></g></g><g><path fill="#ffffff" stroke="none" paint-order="stroke fill markers" d=" M 722.594970703125 412 C 722.594970703125 403.715728 729.310698703125 397 737.594970703125 397 C 745.879242703125 397 752.594970703125 403.715728 752.594970703125 412 C 752.594970703125 420.284272 745.879242703125 427 737.594970703125 427 C 729.310698703125 427 722.594970703125 420.284272 722.594970703125 412 Z"/></g><g><path fill="none" stroke="#000000" paint-order="fill stroke markers" d=" M 722.594970703125 412 C 722.594970703125 403.715728 729.310698703125 397 737.594970703125 397 C 745.879242703125 397 752.594970703125 403.715728 752.594970703125 412 C 752.594970703125 420.284272 745.879242703125 427 737.594970703125 427 C 729.310698703125 427 722.594970703125 420.284272 722.594970703125 412 Z" stroke-miterlimit="10" stroke-dasharray=""/></g><g><path fill="none" stroke="#000000" paint-order="fill stroke markers" d=" M 737.594970703125 397 L 742.594970703125 392" stroke-miterlimit="10" stroke-dasharray=""/></g><g><path fill="none" stroke="#000000" paint-order="fill stroke markers" d=" M 737.594970703125 397 L 742.594970703125 402" stroke-miterlimit="10" stroke-dasharray=""/></g><g><g><path fill="none" stroke="none"/><text fill="#000000" stroke="none" font-family="Arial" font-size="13px" font-style="normal" font-weight="bold" text-decoration="undefined" x="744.094970703125" y="445.5" text-anchor="middle" dominant-baseline="central" transform="matrix(1 0 0 1 -6 0)">CA-014 Controlador tratamiento</text></g></g><g><path fill="#ffffff" stroke="none" paint-order="stroke fill markers" d=" M 455.47265625 178 C 455.47265625 169.1634432 462.63609945 162 471.47265625 162 C 480.30921305 162 487.47265625 169.1634432 487.47265625 178 C 487.47265625 186.8365568 480.30921305 194 471.47265625 194 C 462.63609945 194 455.47265625 186.8365568 455.47265625 178 Z"/></g><g><path fill="none" stroke="#000000" paint-order="fill stroke markers" d=" M 455.47265625 178 C 455.47265625 169.1634432 462.63609945 162 471.47265625 162 C 480.30921305 162 487.47265625 169.1634432 487.47265625 178 C 487.47265625 186.8365568 480.30921305 194 471.47265625 194 C 462.63609945 194 455.47265625 186.8365568 455.47265625 178 Z" stroke-miterlimit="10" stroke-dasharray=""/></g><g><path fill="none" stroke="#000000" paint-order="fill stroke markers" d=" M 447.47265625 162 L 447.47265625 194" stroke-miterlimit="10" stroke-dasharray=""/></g><g><path fill="none" stroke="#000000" paint-order="fill stroke markers" d=" M 447.47265625 178 L 455.47265625 178" stroke-miterlimit="10" stroke-dasharray=""/></g><g><g><path fill="none" stroke="none"/><text fill="#000000" stroke="none" font-family="Arial" font-size="13px" font-style="normal" font-weight="bold" text-decoration="undefined" x="473.97265625" y="211.5" text-anchor="middle" dominant-baseline="central" transform="matrix(1 0 0 1 -6 0)">CA-024 Ficha de paciente</text></g></g><g><path fill="#ffffff" stroke="none" paint-order="stroke fill markers" d=" M 455.463134765625 844 C 455.463134765625 835.1634432 462.626577965625 828 471.463134765625 828 C 480.299691565625 828 487.463134765625 835.1634432 487.463134765625 844 C 487.463134765625 852.8365568 480.299691565625 860 471.463134765625 860 C 462.626577965625 860 455.463134765625 852.8365568 455.463134765625 844 Z"/></g><g><path fill="none" stroke="#000000" paint-order="fill stroke markers" d=" M 455.463134765625 844 C 455.463134765625 835.1634432 462.626577965625 828 471.463134765625 828 C 480.299691565625 828 487.463134765625 835.1634432 487.463134765625 844 C 487.463134765625 852.8365568 480.299691565625 860 471.463134765625 860 C 462.626577965625 860 455.463134765625 852.8365568 455.463134765625 844 Z" stroke-miterlimit="10" stroke-dasharray=""/></g><g><path fill="none" stroke="#000000" paint-order="fill stroke markers" d=" M 447.463134765625 828 L 447.463134765625 860" stroke-miterlimit="10" stroke-dasharray=""/></g><g><path fill="none" stroke="#000000" paint-order="fill stroke markers" d=" M 447.463134765625 844 L 455.463134765625 844" stroke-miterlimit="10" stroke-dasharray=""/></g><g><g><path fill="none" stroke="none"/><text fill="#000000" stroke="none" font-family="Arial" font-size="13px" font-style="normal" font-weight="bold" text-decoration="undefined" x="473.963134765625" y="877.5" text-anchor="middle" dominant-baseline="central" transform="matrix(1 0 0 1 -6 0)">CA-033 Ventana odontograma</text></g></g><g><path fill="#ffffff" stroke="none" paint-order="stroke fill markers" d=" M 454.528564453125 474 C 454.528564453125 465.1634432 461.692007653125 458 470.528564453125 458 C 479.365121253125 458 486.528564453125 465.1634432 486.528564453125 474 C 486.528564453125 482.8365568 479.365121253125 490 470.528564453125 490 C 461.692007653125 490 454.528564453125 482.8365568 454.528564453125 474 Z"/></g><g><path fill="none" stroke="#000000" paint-order="fill stroke markers" d=" M 454.528564453125 474 C 454.528564453125 465.1634432 461.692007653125 458 470.528564453125 458 C 479.365121253125 458 486.528564453125 465.1634432 486.528564453125 474 C 486.528564453125 482.8365568 479.365121253125 490 470.528564453125 490 C 461.692007653125 490 454.528564453125 482.8365568 454.528564453125 474 Z" stroke-miterlimit="10" stroke-dasharray=""/></g><g><path fill="none" stroke="#000000" paint-order="fill stroke markers" d=" M 446.528564453125 458 L 446.528564453125 490" stroke-miterlimit="10" stroke-dasharray=""/></g><g><path fill="none" stroke="#000000" paint-order="fill stroke markers" d=" M 446.528564453125 474 L 454.528564453125 474" stroke-miterlimit="10" stroke-dasharray=""/></g><g><g><path fill="none" stroke="none"/><text fill="#000000" stroke="none" font-family="Arial" font-size="13px" font-style="normal" font-weight="bold" text-decoration="undefined" x="473.028564453125" y="507.5" text-anchor="middle" dominant-baseline="central" transform="matrix(1 0 0 1 -6 0)">CA-028  Ventana tratamiento</text></g></g><g><path fill="#ffffff" stroke="none" paint-order="stroke fill markers" d=" M 455.357666015625 548 C 455.357666015625 539.1634432 462.521109215625 532 471.357666015625 532 C 480.194222815625 532 487.357666015625 539.1634432 487.357666015625 548 C 487.357666015625 556.8365568 480.194222815625 564 471.357666015625 564 C 462.521109215625 564 455.357666015625 556.8365568 455.357666015625 548 Z"/></g><g><path fill="none" stroke="#000000" paint-order="fill stroke markers" d=" M 455.357666015625 548 C 455.357666015625 539.1634432 462.521109215625 532 471.357666015625 532 C 480.194222815625 532 487.357666015625 539.1634432 487.357666015625 548 C 487.357666015625 556.8365568 480.194222815625 564 471.357666015625 564 C 462.521109215625 564 455.357666015625 556.8365568 455.357666015625 548 Z" stroke-miterlimit="10" stroke-dasharray=""/></g><g><path fill="none" stroke="#000000" paint-order="fill stroke markers" d=" M 447.357666015625 532 L 447.357666015625 564" stroke-miterlimit="10" stroke-dasharray=""/></g><g><path fill="none" stroke="#000000" paint-order="fill stroke markers" d=" M 447.357666015625 548 L 455.357666015625 548" stroke-miterlimit="10" stroke-dasharray=""/></g><g><g><path fill="none" stroke="none"/><text fill="#000000" stroke="none" font-family="Arial" font-size="13px" font-style="normal" font-weight="bold" text-decoration="undefined" x="473.857666015625" y="581.5" text-anchor="middle" dominant-baseline="central" transform="matrix(1 0 0 1 -6 0)">CA-029 Registro de sesión</text></g></g><g><path fill="#ffffff" stroke="none" paint-order="stroke fill markers" d=" M 454.943115234375 696 C 454.943115234375 687.1634432 462.106558434375 680 470.943115234375 680 C 479.779672034375 680 486.943115234375 687.1634432 486.943115234375 696 C 486.943115234375 704.8365568 479.779672034375 712 470.943115234375 712 C 462.106558434375 712 454.943115234375 704.8365568 454.943115234375 696 Z"/></g><g><path fill="none" stroke="#000000" paint-order="fill stroke markers" d=" M 454.943115234375 696 C 454.943115234375 687.1634432 462.106558434375 680 470.943115234375 680 C 479.779672034375 680 486.943115234375 687.1634432 486.943115234375 696 C 486.943115234375 704.8365568 479.779672034375 712 470.943115234375 712 C 462.106558434375 712 454.943115234375 704.8365568 454.943115234375 696 Z" stroke-miterlimit="10" stroke-dasharray=""/></g><g><path fill="none" stroke="#000000" paint-order="fill stroke markers" d=" M 446.943115234375 680 L 446.943115234375 712" stroke-miterlimit="10" stroke-dasharray=""/></g><g><path fill="none" stroke="#000000" paint-order="fill stroke markers" d=" M 446.943115234375 696 L 454.943115234375 696" stroke-miterlimit="10" stroke-dasharray=""/></g><g><g><path fill="none" stroke="none"/><text fill="#000000" stroke="none" font-family="Arial" font-size="13px" font-style="normal" font-weight="bold" text-decoration="undefined" x="473.443115234375" y="729.5" text-anchor="middle" dominant-baseline="central" transform="matrix(1 0 0 1 -6 0)">CA-031 Ventana presupuesto</text></g></g><g><path fill="#ffffff" stroke="none" paint-order="stroke fill markers" d=" M 454.943115234375 770 C 454.943115234375 761.1634432 462.106558434375 754 470.943115234375 754 C 479.779672034375 754 486.943115234375 761.1634432 486.943115234375 770 C 486.943115234375 778.8365568 479.779672034375 786 470.943115234375 786 C 462.106558434375 786 454.943115234375 778.8365568 454.943115234375 770 Z"/></g><g><path fill="none" stroke="#000000" paint-order="fill stroke markers" d=" M 454.943115234375 770 C 454.943115234375 761.1634432 462.106558434375 754 470.943115234375 754 C 479.779672034375 754 486.943115234375 761.1634432 486.943115234375 770 C 486.943115234375 778.8365568 479.779672034375 786 470.943115234375 786 C 462.106558434375 786 454.943115234375 778.8365568 454.943115234375 770 Z" stroke-miterlimit="10" stroke-dasharray=""/></g><g><path fill="none" stroke="#000000" paint-order="fill stroke markers" d=" M 446.943115234375 754 L 446.943115234375 786" stroke-miterlimit="10" stroke-dasharray=""/></g><g><path fill="none" stroke="#000000" paint-order="fill stroke markers" d=" M 446.943115234375 770 L 454.943115234375 770" stroke-miterlimit="10" stroke-dasharray=""/></g><g><g><path fill="none" stroke="none"/><text fill="#000000" stroke="none" font-family="Arial" font-size="13px" font-style="normal" font-weight="bold" text-decoration="undefined" x="473.443115234375" y="803.5" text-anchor="middle" dominant-baseline="central" transform="matrix(1 0 0 1 -6 0)">CA-032 Ventana pagos</text></g></g><g><path fill="none" stroke="#000000" paint-order="fill stroke markers" d=" M 553 213 L 653 239" stroke-miterlimit="10" stroke-dasharray=""/></g><g><path fill="none" stroke="#000000" paint-order="fill stroke markers" d=" M 787 231 L 870 162" stroke-miterlimit="10" stroke-dasharray="3"/></g><g><path fill="none" stroke="#000000" paint-order="fill stroke markers" d=" M 864.8761343506088 171.73375574005166 L 870 162 L 859.4940751632226 165.25968454363067" stroke-miterlimit="10" stroke-dasharray=""/></g><g><path fill="#ffffff" stroke="none" paint-order="stroke fill markers" d=" M 447.00537109375 30 C 447.00537109375 21.1634432 454.16881429375 14 463.00537109375 14 C 471.84192789375 14 479.00537109375 21.1634432 479.00537109375 30 C 479.00537109375 38.8365568 471.84192789375 46 463.00537109375 46 C 454.16881429375 46 447.00537109375 38.8365568 447.00537109375 30 Z"/></g><g><path fill="none" stroke="#000000" paint-order="fill stroke markers" d=" M 447.00537109375 30 C 447.00537109375 21.1634432 454.16881429375 14 463.00537109375 14 C 471.84192789375 14 479.00537109375 21.1634432 479.00537109375 30 C 479.00537109375 38.8365568 471.84192789375 46 463.00537109375 46 C 454.16881429375 46 447.00537109375 38.8365568 447.00537109375 30 Z" stroke-miterlimit="10" stroke-dasharray=""/></g><g><path fill="none" stroke="#000000" paint-order="fill stroke markers" d=" M 439.00537109375 14 L 439.00537109375 46" stroke-miterlimit="10" stroke-dasharray=""/></g><g><path fill="none" stroke="#000000" paint-order="fill stroke markers" d=" M 439.00537109375 30 L 447.00537109375 30" stroke-miterlimit="10" stroke-dasharray=""/></g><g><g><path fill="none" stroke="none"/><text fill="#000000" stroke="none" font-family="Arial" font-size="13px" font-style="normal" font-weight="bold" text-decoration="undefined" x="465.50537109375" y="63.5" text-anchor="middle" dominant-baseline="central" transform="matrix(1 0 0 1 -6 0)">CA-022 Interfaz de inicio</text></g></g><g><path fill="#ffffff" stroke="none" paint-order="stroke fill markers" d=" M 734.341796875 572 C 734.341796875 563.715728 741.057524875 557 749.341796875 557 C 757.626068875 557 764.341796875 563.715728 764.341796875 572 C 764.341796875 580.284272 757.626068875 587 749.341796875 587 C 741.057524875 587 734.341796875 580.284272 734.341796875 572 Z"/></g><g><path fill="none" stroke="#000000" paint-order="fill stroke markers" d=" M 734.341796875 572 C 734.341796875 563.715728 741.057524875 557 749.341796875 557 C 757.626068875 557 764.341796875 563.715728 764.341796875 572 C 764.341796875 580.284272 757.626068875 587 749.341796875 587 C 741.057524875 587 734.341796875 580.284272 734.341796875 572 Z" stroke-miterlimit="10" stroke-dasharray=""/></g><g><path fill="none" stroke="#000000" paint-order="fill stroke markers" d=" M 749.341796875 557 L 754.341796875 552" stroke-miterlimit="10" stroke-dasharray=""/></g><g><path fill="none" stroke="#000000" paint-order="fill stroke markers" d=" M 749.341796875 557 L 754.341796875 562" stroke-miterlimit="10" stroke-dasharray=""/></g><g><g><path fill="none" stroke="none"/><text fill="#000000" stroke="none" font-family="Arial" font-size="13px" font-style="normal" font-weight="bold" text-decoration="undefined" x="755.841796875" y="605.5" text-anchor="middle" dominant-baseline="central" transform="matrix(1 0 0 1 -6 0)">CA-015 Controlador pagos</text></g></g><g><path fill="none" stroke="#000000" paint-order="fill stroke markers" d=" M 573 64 L 817 110" stroke-miterlimit="10" stroke-dasharray=""/></g><g><path fill="none" stroke="#000000" paint-order="fill stroke markers" d=" M 570 462 L 633 448" stroke-miterlimit="10" stroke-dasharray=""/></g><g><path fill="none" stroke="#000000" paint-order="fill stroke markers" d=" M 533 527 L 670 458" stroke-miterlimit="10" stroke-dasharray=""/></g><g><path fill="none" stroke="#000000" paint-order="fill stroke markers" d=" M 541 675 L 671 618" stroke-miterlimit="10" stroke-dasharray=""/></g><g><path fill="none" stroke="#000000" paint-order="fill stroke markers" d=" M 513 749 L 700 618" stroke-miterlimit="10" stroke-dasharray=""/></g><g><path fill="#ffffff" stroke="none" paint-order="stroke fill markers" d=" M 737.812255859375 732 C 737.812255859375 723.715728 744.527983859375 717 752.812255859375 717 C 761.096527859375 717 767.812255859375 723.715728 767.812255859375 732 C 767.812255859375 740.284272 761.096527859375 747 752.812255859375 747 C 744.527983859375 747 737.812255859375 740.284272 737.812255859375 732 Z"/></g><g><path fill="none" stroke="#000000" paint-order="fill stroke markers" d=" M 737.812255859375 732 C 737.812255859375 723.715728 744.527983859375 717 752.812255859375 717 C 761.096527859375 717 767.812255859375 723.715728 767.812255859375 732 C 767.812255859375 740.284272 761.096527859375 747 752.812255859375 747 C 744.527983859375 747 737.812255859375 740.284272 737.812255859375 732 Z" stroke-miterlimit="10" stroke-dasharray=""/></g><g><path fill="none" stroke="#000000" paint-order="fill stroke markers" d=" M 752.812255859375 717 L 757.812255859375 712" stroke-miterlimit="10" stroke-dasharray=""/></g><g><path fill="none" stroke="#000000" paint-order="fill stroke markers" d=" M 752.812255859375 717 L 757.812255859375 722" stroke-miterlimit="10" stroke-dasharray=""/></g><g><g><path fill="none" stroke="none"/><text fill="#000000" stroke="none" font-family="Arial" font-size="13px" font-style="normal" font-weight="bold" text-decoration="undefined" x="759.312255859375" y="765.5" text-anchor="middle" dominant-baseline="central" transform="matrix(1 0 0 1 -6 0)">CA-016 Controlador odontograma</text></g></g><g><path fill="none" stroke="#000000" paint-order="fill stroke markers" d=" M 551 823 L 665 778" stroke-miterlimit="10" stroke-dasharray=""/></g><g><path fill="#ffffff" stroke="none" paint-order="stroke fill markers" d=" M 141.07177734375 844 C 141.07177734375 835.1634432 148.23522054375 828 157.07177734375 828 C 165.90833414375 828 173.07177734375 835.1634432 173.07177734375 844 C 173.07177734375 852.8365568 165.90833414375 860 157.07177734375 860 C 148.23522054375 860 141.07177734375 852.8365568 141.07177734375 844 Z"/></g><g><path fill="none" stroke="#000000" paint-order="fill stroke markers" d=" M 141.07177734375 844 C 141.07177734375 835.1634432 148.23522054375 828 157.07177734375 828 C 165.90833414375 828 173.07177734375 835.1634432 173.07177734375 844 C 173.07177734375 852.8365568 165.90833414375 860 157.07177734375 860 C 148.23522054375 860 141.07177734375 852.8365568 141.07177734375 844 Z" stroke-miterlimit="10" stroke-dasharray=""/></g><g><path fill="none" stroke="#000000" paint-order="fill stroke markers" d=" M 133.07177734375 828 L 133.07177734375 860" stroke-miterlimit="10" stroke-dasharray=""/></g><g><path fill="none" stroke="#000000" paint-order="fill stroke markers" d=" M 133.07177734375 844 L 141.07177734375 844" stroke-miterlimit="10" stroke-dasharray=""/></g><g><g><path fill="none" stroke="none"/><text fill="#000000" stroke="none" font-family="Arial" font-size="13px" font-style="normal" font-weight="bold" text-decoration="undefined" x="159.57177734375" y="877.5" text-anchor="middle" dominant-baseline="central" transform="matrix(1 0 0 1 -6 0)">CA-034 Área de dibujo de odontograma</text></g></g><g><path fill="none" stroke="#000000" paint-order="fill stroke markers" d=" M 281 856 L 369 856" stroke-miterlimit="10" stroke-dasharray=""/></g><g><path fill="#000000" stroke="none" paint-order="stroke fill markers" d=" M 358.83732514237585 860.209517756016 L 369 856 L 358.83732514237585 851.790482243984 L 347 856"/></g><g><path fill="none" stroke="#000000" paint-order="fill stroke markers" d=" M 358.83732514237585 860.209517756016 L 369 856 L 358.83732514237585 851.790482243984 L 347 856 L 358.83732514237585 860.209517756016" stroke-miterlimit="10" stroke-dasharray=""/></g><g><path fill="#ffffff" stroke="none" paint-order="stroke fill markers" d=" M 455.24169921875 104 C 455.24169921875 95.1634432 462.40514241875 88 471.24169921875 88 C 480.07825601875 88 487.24169921875 95.1634432 487.24169921875 104 C 487.24169921875 112.8365568 480.07825601875 120 471.24169921875 120 C 462.40514241875 120 455.24169921875 112.8365568 455.24169921875 104 Z"/></g><g><path fill="none" stroke="#000000" paint-order="fill stroke markers" d=" M 455.24169921875 104 C 455.24169921875 95.1634432 462.40514241875 88 471.24169921875 88 C 480.07825601875 88 487.24169921875 95.1634432 487.24169921875 104 C 487.24169921875 112.8365568 480.07825601875 120 471.24169921875 120 C 462.40514241875 120 455.24169921875 112.8365568 455.24169921875 104 Z" stroke-miterlimit="10" stroke-dasharray=""/></g><g><path fill="none" stroke="#000000" paint-order="fill stroke markers" d=" M 447.24169921875 88 L 447.24169921875 120" stroke-miterlimit="10" stroke-dasharray=""/></g><g><path fill="none" stroke="#000000" paint-order="fill stroke markers" d=" M 447.24169921875 104 L 455.24169921875 104" stroke-miterlimit="10" stroke-dasharray=""/></g><g><g><path fill="none" stroke="none"/><text fill="#000000" stroke="none" font-family="Arial" font-size="13px" font-style="normal" font-weight="bold" text-decoration="undefined" x="473.74169921875" y="137.5" text-anchor="middle" dominant-baseline="central" transform="matrix(1 0 0 1 -6 0)">CA-023 Creación de paciente</text></g></g><g><path fill="#ffffff" stroke="none" paint-order="stroke fill markers" d=" M 455.26171875 252 C 455.26171875 243.1634432 462.42516195 236 471.26171875 236 C 480.09827555 236 487.26171875 243.1634432 487.26171875 252 C 487.26171875 260.8365568 480.09827555 268 471.26171875 268 C 462.42516195 268 455.26171875 260.8365568 455.26171875 252 Z"/></g><g><path fill="none" stroke="#000000" paint-order="fill stroke markers" d=" M 455.26171875 252 C 455.26171875 243.1634432 462.42516195 236 471.26171875 236 C 480.09827555 236 487.26171875 243.1634432 487.26171875 252 C 487.26171875 260.8365568 480.09827555 268 471.26171875 268 C 462.42516195 268 455.26171875 260.8365568 455.26171875 252 Z" stroke-miterlimit="10" stroke-dasharray=""/></g><g><path fill="none" stroke="#000000" paint-order="fill stroke markers" d=" M 447.26171875 236 L 447.26171875 268" stroke-miterlimit="10" stroke-dasharray=""/></g><g><path fill="none" stroke="#000000" paint-order="fill stroke markers" d=" M 447.26171875 252 L 455.26171875 252" stroke-miterlimit="10" stroke-dasharray=""/></g><g><g><path fill="none" stroke="none"/><text fill="#000000" stroke="none" font-family="Arial" font-size="13px" font-style="normal" font-weight="bold" text-decoration="undefined" x="473.76171875" y="285.5" text-anchor="middle" dominant-baseline="central" transform="matrix(1 0 0 1 -6 0)">CA-025 Actualización datos de paciente</text></g></g><g><path fill="#ffffff" stroke="none" paint-order="stroke fill markers" d=" M 458.17529296875 326 C 458.17529296875 317.1634432 465.33873616875 310 474.17529296875 310 C 483.01184976875 310 490.17529296875 317.1634432 490.17529296875 326 C 490.17529296875 334.8365568 483.01184976875 342 474.17529296875 342 C 465.33873616875 342 458.17529296875 334.8365568 458.17529296875 326 Z"/></g><g><path fill="none" stroke="#000000" paint-order="fill stroke markers" d=" M 458.17529296875 326 C 458.17529296875 317.1634432 465.33873616875 310 474.17529296875 310 C 483.01184976875 310 490.17529296875 317.1634432 490.17529296875 326 C 490.17529296875 334.8365568 483.01184976875 342 474.17529296875 342 C 465.33873616875 342 458.17529296875 334.8365568 458.17529296875 326 Z" stroke-miterlimit="10" stroke-dasharray=""/></g><g><path fill="none" stroke="#000000" paint-order="fill stroke markers" d=" M 450.17529296875 310 L 450.17529296875 342" stroke-miterlimit="10" stroke-dasharray=""/></g><g><path fill="none" stroke="#000000" paint-order="fill stroke markers" d=" M 450.17529296875 326 L 458.17529296875 326" stroke-miterlimit="10" stroke-dasharray=""/></g><g><g><path fill="none" stroke="none"/><text fill="#000000" stroke="none" font-family="Arial" font-size="13px" font-style="normal" font-weight="bold" text-decoration="undefined" x="476.67529296875" y="359.5" text-anchor="middle" dominant-baseline="central" transform="matrix(1 0 0 1 -6 0)">CA-026 Ventana exámenes auxiliares</text></g></g><g><path fill="#ffffff" stroke="none" paint-order="stroke fill markers" d=" M 140.830322265625 300 C 140.830322265625 291.1634432 147.993765465625 284 156.830322265625 284 C 165.666879065625 284 172.830322265625 291.1634432 172.830322265625 300 C 172.830322265625 308.8365568 165.666879065625 316 156.830322265625 316 C 147.993765465625 316 140.830322265625 308.8365568 140.830322265625 300 Z"/></g><g><path fill="none" stroke="#000000" paint-order="fill stroke markers" d=" M 140.830322265625 300 C 140.830322265625 291.1634432 147.993765465625 284 156.830322265625 284 C 165.666879065625 284 172.830322265625 291.1634432 172.830322265625 300 C 172.830322265625 308.8365568 165.666879065625 316 156.830322265625 316 C 147.993765465625 316 140.830322265625 308.8365568 140.830322265625 300 Z" stroke-miterlimit="10" stroke-dasharray=""/></g><g><path fill="none" stroke="#000000" paint-order="fill stroke markers" d=" M 132.830322265625 284 L 132.830322265625 316" stroke-miterlimit="10" stroke-dasharray=""/></g><g><path fill="none" stroke="#000000" paint-order="fill stroke markers" d=" M 132.830322265625 300 L 140.830322265625 300" stroke-miterlimit="10" stroke-dasharray=""/></g><g><g><path fill="none" stroke="none"/><text fill="#000000" stroke="none" font-family="Arial" font-size="13px" font-style="normal" font-weight="bold" text-decoration="undefined" x="159.330322265625" y="333.5" text-anchor="middle" dominant-baseline="central" transform="matrix(1 0 0 1 -6 0)">CA-037 Ventana exámenes estomatológicos</text></g></g><g><path fill="#ffffff" stroke="none" paint-order="stroke fill markers" d=" M 140.998046875 52 C 140.998046875 43.1634432 148.161490075 36 156.998046875 36 C 165.834603675 36 172.998046875 43.1634432 172.998046875 52 C 172.998046875 60.8365568 165.834603675 68 156.998046875 68 C 148.161490075 68 140.998046875 60.8365568 140.998046875 52 Z"/></g><g><path fill="none" stroke="#000000" paint-order="fill stroke markers" d=" M 140.998046875 52 C 140.998046875 43.1634432 148.161490075 36 156.998046875 36 C 165.834603675 36 172.998046875 43.1634432 172.998046875 52 C 172.998046875 60.8365568 165.834603675 68 156.998046875 68 C 148.161490075 68 140.998046875 60.8365568 140.998046875 52 Z" stroke-miterlimit="10" stroke-dasharray=""/></g><g><path fill="none" stroke="#000000" paint-order="fill stroke markers" d=" M 132.998046875 36 L 132.998046875 68" stroke-miterlimit="10" stroke-dasharray=""/></g><g><path fill="none" stroke="#000000" paint-order="fill stroke markers" d=" M 132.998046875 52 L 140.998046875 52" stroke-miterlimit="10" stroke-dasharray=""/></g><g><g><path fill="none" stroke="none"/><text fill="#000000" stroke="none" font-family="Arial" font-size="13px" font-style="normal" font-weight="bold" text-decoration="undefined" x="159.498046875" y="85.5" text-anchor="middle" dominant-baseline="central" transform="matrix(1 0 0 1 -6 0)">CA-035 Ventana contraindicaciones médicas</text></g></g><g><path fill="#ffffff" stroke="none" paint-order="stroke fill markers" d=" M 141.429443359375 172 C 141.429443359375 163.1634432 148.592886559375 156 157.429443359375 156 C 166.266000159375 156 173.429443359375 163.1634432 173.429443359375 172 C 173.429443359375 180.8365568 166.266000159375 188 157.429443359375 188 C 148.592886559375 188 141.429443359375 180.8365568 141.429443359375 172 Z"/></g><g><path fill="none" stroke="#000000" paint-order="fill stroke markers" d=" M 141.429443359375 172 C 141.429443359375 163.1634432 148.592886559375 156 157.429443359375 156 C 166.266000159375 156 173.429443359375 163.1634432 173.429443359375 172 C 173.429443359375 180.8365568 166.266000159375 188 157.429443359375 188 C 148.592886559375 188 141.429443359375 180.8365568 141.429443359375 172 Z" stroke-miterlimit="10" stroke-dasharray=""/></g><g><path fill="none" stroke="#000000" paint-order="fill stroke markers" d=" M 133.429443359375 156 L 133.429443359375 188" stroke-miterlimit="10" stroke-dasharray=""/></g><g><path fill="none" stroke="#000000" paint-order="fill stroke markers" d=" M 133.429443359375 172 L 141.429443359375 172" stroke-miterlimit="10" stroke-dasharray=""/></g><g><g><path fill="none" stroke="none"/><text fill="#000000" stroke="none" font-family="Arial" font-size="13px" font-style="normal" font-weight="bold" text-decoration="undefined" x="159.929443359375" y="205.5" text-anchor="middle" dominant-baseline="central" transform="matrix(1 0 0 1 -6 0)">CA-038 Datos médicos del paciente</text></g></g><g><path fill="none" stroke="#000000" paint-order="fill stroke markers" d=" M 152 98 L 153 151" stroke-miterlimit="10" stroke-dasharray=""/></g><g><path fill="#000000" stroke="none" paint-order="stroke fill markers" d=" M 148.59951687492833 140.91854433794606 L 153 151 L 157.01705420463472 140.759722878895 L 152.5849795271525 129.0039149390825"/></g><g><path fill="none" stroke="#000000" paint-order="fill stroke markers" d=" M 148.59951687492833 140.91854433794606 L 153 151 L 157.01705420463472 140.759722878895 L 152.5849795271525 129.0039149390825 L 148.59951687492833 140.91854433794606" stroke-miterlimit="10" stroke-dasharray=""/></g><g><path fill="none" stroke="#000000" paint-order="fill stroke markers" d=" M 152 279 L 153 218" stroke-miterlimit="10" stroke-dasharray=""/></g><g><path fill="#000000" stroke="none" paint-order="stroke fill markers" d=" M 157.04237338159294 228.230308765809 L 153 218 L 148.62446892827663 228.0923103321481 L 152.63939271473538 239.99704440114203"/></g><g><path fill="none" stroke="#000000" paint-order="fill stroke markers" d=" M 157.04237338159294 228.230308765809 L 153 218 L 148.62446892827663 228.0923103321481 L 152.63939271473538 239.99704440114203 L 157.04237338159294 228.230308765809" stroke-miterlimit="10" stroke-dasharray=""/></g><g><path fill="none" stroke="#000000" paint-order="fill stroke markers" d=" M 273 158 L 346 142" stroke-miterlimit="10" stroke-dasharray=""/></g><g><path fill="#000000" stroke="none" paint-order="stroke fill markers" d=" M 336.9742113110903 148.28769739595901 L 346 142 L 335.1717301457835 140.06387707924674 L 324.5101218887716 146.71011027095415"/></g><g><path fill="none" stroke="#000000" paint-order="fill stroke markers" d=" M 336.9742113110903 148.28769739595901 L 346 142 L 335.1717301457835 140.06387707924674 L 324.5101218887716 146.71011027095415 L 336.9742113110903 148.28769739595901" stroke-miterlimit="10" stroke-dasharray=""/></g><g><path fill="none" stroke="#000000" paint-order="fill stroke markers" d=" M 273 186 L 382 188" stroke-miterlimit="10" stroke-dasharray=""/></g><g><path fill="#000000" stroke="none" paint-order="stroke fill markers" d=" M 371.761809595438 192.0223696050879 L 382 188 L 371.9162613136589 183.6047509620515 L 360.0037024571114 187.59639821022225"/></g><g><path fill="none" stroke="#000000" paint-order="fill stroke markers" d=" M 371.761809595438 192.0223696050879 L 382 188 L 371.9162613136589 183.6047509620515 L 360.0037024571114 187.59639821022225 L 371.761809595438 192.0223696050879" stroke-miterlimit="10" stroke-dasharray=""/></g><g><path fill="none" stroke="#000000" paint-order="fill stroke markers" d=" M 273 215 L 337 231" stroke-miterlimit="10" stroke-dasharray=""/></g><g><path fill="#000000" stroke="none" paint-order="stroke fill markers" d=" M 326.1197991854035 232.61902138159263 L 337 231 L 328.1617152255173 224.45135722113758 L 315.6568649968027 225.66421624920068"/></g><g><path fill="none" stroke="#000000" paint-order="fill stroke markers" d=" M 326.1197991854035 232.61902138159263 L 337 231 L 328.1617152255173 224.45135722113758 L 315.6568649968027 225.66421624920068 L 326.1197991854035 232.61902138159263" stroke-miterlimit="10" stroke-dasharray=""/></g><g><path fill="none" stroke="#000000" paint-order="fill stroke markers" d=" M 598 264 L 653 264" stroke-miterlimit="10" stroke-dasharray=""/></g><g><path fill="none" stroke="#000000" paint-order="fill stroke markers" d=" M 588 119 L 817 125" stroke-miterlimit="10" stroke-dasharray=""/></g><g><path fill="none" stroke="#000000" paint-order="fill stroke markers" d=" M 590 306 L 653 289" stroke-miterlimit="10" stroke-dasharray=""/></g><g><path fill="#ffffff" stroke="none" paint-order="stroke fill markers" d=" M 455.22265625 622 C 455.22265625 613.1634432 462.38609945 606 471.22265625 606 C 480.05921305 606 487.22265625 613.1634432 487.22265625 622 C 487.22265625 630.8365568 480.05921305 638 471.22265625 638 C 462.38609945 638 455.22265625 630.8365568 455.22265625 622 Z"/></g><g><path fill="none" stroke="#000000" paint-order="fill stroke markers" d=" M 455.22265625 622 C 455.22265625 613.1634432 462.38609945 606 471.22265625 606 C 480.05921305 606 487.22265625 613.1634432 487.22265625 622 C 487.22265625 630.8365568 480.05921305 638 471.22265625 638 C 462.38609945 638 455.22265625 630.8365568 455.22265625 622 Z" stroke-miterlimit="10" stroke-dasharray=""/></g><g><path fill="none" stroke="#000000" paint-order="fill stroke markers" d=" M 447.22265625 606 L 447.22265625 638" stroke-miterlimit="10" stroke-dasharray=""/></g><g><path fill="none" stroke="#000000" paint-order="fill stroke markers" d=" M 447.22265625 622 L 455.22265625 622" stroke-miterlimit="10" stroke-dasharray=""/></g><g><g><path fill="none" stroke="none"/><text fill="#000000" stroke="none" font-family="Arial" font-size="13px" font-style="normal" font-weight="bold" text-decoration="undefined" x="473.72265625" y="655.5" text-anchor="middle" dominant-baseline="central" transform="matrix(1 0 0 1 -6 0)">CA-030 Creación de presupuesto</text></g></g><g><path fill="none" stroke="#000000" paint-order="fill stroke markers" d=" M 575 615 L 661 600" stroke-miterlimit="10" stroke-dasharray=""/></g><g><path fill="none" stroke="#000000" paint-order="fill stroke markers" d=" M 756 391 L 890 162" stroke-miterlimit="10" stroke-dasharray="3"/></g><g><path fill="none" stroke="#000000" paint-order="fill stroke markers" d=" M 888.5006317926135 172.89733430608965 L 890 162 L 881.2342075883687 168.64536555775427" stroke-miterlimit="10" stroke-dasharray=""/></g><g><path fill="none" stroke="#000000" paint-order="fill stroke markers" d=" M 761 551 L 898 162" stroke-miterlimit="10" stroke-dasharray="3"/></g><g><path fill="none" stroke="#000000" paint-order="fill stroke markers" d=" M 898.5945786732444 172.9839189819173 L 898 162 L 890.6536270156827 170.18723420791738" stroke-miterlimit="10" stroke-dasharray=""/></g><g><path fill="none" stroke="#000000" paint-order="fill stroke markers" d=" M 760 711 L 901 162" stroke-miterlimit="10" stroke-dasharray="3"/></g><g><path fill="none" stroke="#000000" paint-order="fill stroke markers" d=" M 902.549155063378 172.89036815675257 L 901 162 L 894.3947648771663 170.7960712236818" stroke-miterlimit="10" stroke-dasharray=""/></g><g><path fill="#ffffff" stroke="none" paint-order="stroke fill markers" d=" M 1053.1044921875 252 C 1053.1044921875 243.715728 1059.8202201875 237 1068.1044921875 237 C 1076.3887641875 237 1083.1044921875 243.715728 1083.1044921875 252 C 1083.1044921875 260.284272 1076.3887641875 267 1068.1044921875 267 C 1059.8202201875 267 1053.1044921875 260.284272 1053.1044921875 252 Z"/></g><g><path fill="none" stroke="#000000" paint-order="fill stroke markers" d=" M 1053.1044921875 252 C 1053.1044921875 243.715728 1059.8202201875 237 1068.1044921875 237 C 1076.3887641875 237 1083.1044921875 243.715728 1083.1044921875 252 C 1083.1044921875 260.284272 1076.3887641875 267 1068.1044921875 267 C 1059.8202201875 267 1053.1044921875 260.284272 1053.1044921875 252 Z" stroke-miterlimit="10" stroke-dasharray=""/></g><g><path fill="none" stroke="#000000" paint-order="fill stroke markers" d=" M 1068.1044921875 237 L 1073.1044921875 232" stroke-miterlimit="10" stroke-dasharray=""/></g><g><path fill="none" stroke="#000000" paint-order="fill stroke markers" d=" M 1068.1044921875 237 L 1073.1044921875 242" stroke-miterlimit="10" stroke-dasharray=""/></g><g><g><path fill="none" stroke="none"/><text fill="#000000" stroke="none" font-family="Arial" font-size="13px" font-style="normal" font-weight="bold" text-decoration="undefined" x="1074.6044921875" y="285.5" text-anchor="middle" dominant-baseline="central" transform="matrix(1 0 0 1 -6 0)">CA-017 Controlador datos de paciente</text></g></g><g><path fill="#ffffff" stroke="none" paint-order="stroke fill markers" d=" M 1053.127685546875 412 C 1053.127685546875 403.715728 1059.843413546875 397 1068.127685546875 397 C 1076.411957546875 397 1083.127685546875 403.715728 1083.127685546875 412 C 1083.127685546875 420.284272 1076.411957546875 427 1068.127685546875 427 C 1059.843413546875 427 1053.127685546875 420.284272 1053.127685546875 412 Z"/></g><g><path fill="none" stroke="#000000" paint-order="fill stroke markers" d=" M 1053.127685546875 412 C 1053.127685546875 403.715728 1059.843413546875 397 1068.127685546875 397 C 1076.411957546875 397 1083.127685546875 403.715728 1083.127685546875 412 C 1083.127685546875 420.284272 1076.411957546875 427 1068.127685546875 427 C 1059.843413546875 427 1053.127685546875 420.284272 1053.127685546875 412 Z" stroke-miterlimit="10" stroke-dasharray=""/></g><g><path fill="none" stroke="#000000" paint-order="fill stroke markers" d=" M 1068.127685546875 397 L 1073.127685546875 392" stroke-miterlimit="10" stroke-dasharray=""/></g><g><path fill="none" stroke="#000000" paint-order="fill stroke markers" d=" M 1068.127685546875 397 L 1073.127685546875 402" stroke-miterlimit="10" stroke-dasharray=""/></g><g><g><path fill="none" stroke="none"/><text fill="#000000" stroke="none" font-family="Arial" font-size="13px" font-style="normal" font-weight="bold" text-decoration="undefined" x="1074.627685546875" y="445.5" text-anchor="middle" dominant-baseline="central" transform="matrix(1 0 0 1 -6 0)">CA-018 Controlador datos de tratamiento</text></g></g><g><path fill="#ffffff" stroke="none" paint-order="stroke fill markers" d=" M 1052.87451171875 572 C 1052.87451171875 563.715728 1059.59023971875 557 1067.87451171875 557 C 1076.15878371875 557 1082.87451171875 563.715728 1082.87451171875 572 C 1082.87451171875 580.284272 1076.15878371875 587 1067.87451171875 587 C 1059.59023971875 587 1052.87451171875 580.284272 1052.87451171875 572 Z"/></g><g><path fill="none" stroke="#000000" paint-order="fill stroke markers" d=" M 1052.87451171875 572 C 1052.87451171875 563.715728 1059.59023971875 557 1067.87451171875 557 C 1076.15878371875 557 1082.87451171875 563.715728 1082.87451171875 572 C 1082.87451171875 580.284272 1076.15878371875 587 1067.87451171875 587 C 1059.59023971875 587 1052.87451171875 580.284272 1052.87451171875 572 Z" stroke-miterlimit="10" stroke-dasharray=""/></g><g><path fill="none" stroke="#000000" paint-order="fill stroke markers" d=" M 1067.87451171875 557 L 1072.87451171875 552" stroke-miterlimit="10" stroke-dasharray=""/></g><g><path fill="none" stroke="#000000" paint-order="fill stroke markers" d=" M 1067.87451171875 557 L 1072.87451171875 562" stroke-miterlimit="10" stroke-dasharray=""/></g><g><g><path fill="none" stroke="none"/><text fill="#000000" stroke="none" font-family="Arial" font-size="13px" font-style="normal" font-weight="bold" text-decoration="undefined" x="1074.37451171875" y="605.5" text-anchor="middle" dominant-baseline="central" transform="matrix(1 0 0 1 -6 0)">CA-019 Controlador datos de pagos</text></g></g><g><path fill="#ffffff" stroke="none" paint-order="stroke fill markers" d=" M 1053.259521484375 732 C 1053.259521484375 723.715728 1059.975249484375 717 1068.259521484375 717 C 1076.543793484375 717 1083.259521484375 723.715728 1083.259521484375 732 C 1083.259521484375 740.284272 1076.543793484375 747 1068.259521484375 747 C 1059.975249484375 747 1053.259521484375 740.284272 1053.259521484375 732 Z"/></g><g><path fill="none" stroke="#000000" paint-order="fill stroke markers" d=" M 1053.259521484375 732 C 1053.259521484375 723.715728 1059.975249484375 717 1068.259521484375 717 C 1076.543793484375 717 1083.259521484375 723.715728 1083.259521484375 732 C 1083.259521484375 740.284272 1076.543793484375 747 1068.259521484375 747 C 1059.975249484375 747 1053.259521484375 740.284272 1053.259521484375 732 Z" stroke-miterlimit="10" stroke-dasharray=""/></g><g><path fill="none" stroke="#000000" paint-order="fill stroke markers" d=" M 1068.259521484375 717 L 1073.259521484375 712" stroke-miterlimit="10" stroke-dasharray=""/></g><g><path fill="none" stroke="#000000" paint-order="fill stroke markers" d=" M 1068.259521484375 717 L 1073.259521484375 722" stroke-miterlimit="10" stroke-dasharray=""/></g><g><g><path fill="none" stroke="none"/><text fill="#000000" stroke="none" font-family="Arial" font-size="13px" font-style="normal" font-weight="bold" text-decoration="undefined" x="1074.759521484375" y="765.5" text-anchor="middle" dominant-baseline="central" transform="matrix(1 0 0 1 -6 0)">CA-020 Controlador datos de odontograma</text></g></g><g><path fill="none" stroke="#000000" paint-order="fill stroke markers" d=" M 1030 231 L 950 162" stroke-miterlimit="10" stroke-dasharray="3"/></g><g><path fill="none" stroke="#000000" paint-order="fill stroke markers" d=" M 960.4450195542165 165.44986470923632 L 950 162 L 954.9463214263354 171.82516688648977" stroke-miterlimit="10" stroke-dasharray=""/></g><g><path fill="none" stroke="#000000" paint-order="fill stroke markers" d=" M 1050 391 L 928 162" stroke-miterlimit="10" stroke-dasharray="3"/></g><g><path fill="none" stroke="#000000" paint-order="fill stroke markers" d=" M 936.4935471384737 168.98996831226907 L 928 162 L 929.0631907840578 172.94849877182688" stroke-miterlimit="10" stroke-dasharray=""/></g><g><path fill="none" stroke="#000000" paint-order="fill stroke markers" d=" M 1056 551 L 922 162" stroke-miterlimit="10" stroke-dasharray="3"/></g><g><path fill="none" stroke="#000000" paint-order="fill stroke markers" d=" M 929.2898912907516 170.23756547585654 L 922 162 L 921.3298931573569 172.97956997424959" stroke-miterlimit="10" stroke-dasharray=""/></g><g><path fill="none" stroke="#000000" paint-order="fill stroke markers" d=" M 1060 711 L 919 162" stroke-miterlimit="10" stroke-dasharray="3"/></g><g><path fill="none" stroke="#000000" paint-order="fill stroke markers" d=" M 925.6052351228337 170.7960712236818 L 919 162 L 917.450844936622 172.89036815675257" stroke-miterlimit="10" stroke-dasharray=""/></g><g><path fill="none" stroke="#000000" paint-order="fill stroke markers" d=" M 1192 233 L 1305 206" stroke-miterlimit="10" stroke-dasharray=""/></g><g><path fill="none" stroke="#000000" paint-order="fill stroke markers" d=" M 1192 267 L 1282 270" stroke-miterlimit="10" stroke-dasharray=""/></g><g><path fill="none" stroke="#000000" paint-order="fill stroke markers" d=" M 1201 395 L 1295 375" stroke-miterlimit="10" stroke-dasharray=""/></g><g><path fill="none" stroke="#000000" paint-order="fill stroke markers" d=" M 1201 431 L 1310 437" stroke-miterlimit="10" stroke-dasharray=""/></g><g><path fill="none" stroke="#000000" paint-order="fill stroke markers" d=" M 1185 584 L 1289 584" stroke-miterlimit="10" stroke-dasharray=""/></g><g><path fill="none" stroke="#000000" paint-order="fill stroke markers" d=" M 1208 744 L 1289 744" stroke-miterlimit="10" stroke-dasharray=""/></g><g><path fill="#ffffff" stroke="none" paint-order="stroke fill markers" d=" M 452.219482421875 400 C 452.219482421875 391.1634432 459.382925621875 384 468.219482421875 384 C 477.056039221875 384 484.219482421875 391.1634432 484.219482421875 400 C 484.219482421875 408.8365568 477.056039221875 416 468.219482421875 416 C 459.382925621875 416 452.219482421875 408.8365568 452.219482421875 400 Z"/></g><g><path fill="none" stroke="#000000" paint-order="fill stroke markers" d=" M 452.219482421875 400 C 452.219482421875 391.1634432 459.382925621875 384 468.219482421875 384 C 477.056039221875 384 484.219482421875 391.1634432 484.219482421875 400 C 484.219482421875 408.8365568 477.056039221875 416 468.219482421875 416 C 459.382925621875 416 452.219482421875 408.8365568 452.219482421875 400 Z" stroke-miterlimit="10" stroke-dasharray=""/></g><g><path fill="none" stroke="#000000" paint-order="fill stroke markers" d=" M 444.219482421875 384 L 444.219482421875 416" stroke-miterlimit="10" stroke-dasharray=""/></g><g><path fill="none" stroke="#000000" paint-order="fill stroke markers" d=" M 444.219482421875 400 L 452.219482421875 400" stroke-miterlimit="10" stroke-dasharray=""/></g><g><g><path fill="none" stroke="none"/><text fill="#000000" stroke="none" font-family="Arial" font-size="13px" font-style="normal" font-weight="bold" text-decoration="undefined" x="470.719482421875" y="433.5" text-anchor="middle" dominant-baseline="central" transform="matrix(1 0 0 1 -6 0)">CA-027 Creación tratamiento</text></g></g><g><path fill="none" stroke="#000000" paint-order="fill stroke markers" d=" M 559 416 L 633 419" stroke-miterlimit="10" stroke-dasharray=""/></g><g><path fill="none" stroke="#000000" paint-order="fill stroke markers" d=" M 944 264 L 844 264" stroke-miterlimit="10" stroke-dasharray=""/></g><g><path fill="none" stroke="#000000" paint-order="fill stroke markers" d=" M 854.1626748576241 259.790482243984 L 844 264 L 854.1626748576241 268.209517756016" stroke-miterlimit="10" stroke-dasharray=""/></g><g><path fill="none" stroke="#000000" paint-order="fill stroke markers" d=" M 935 424 L 842 424" stroke-miterlimit="10" stroke-dasharray=""/></g><g><path fill="none" stroke="#000000" paint-order="fill stroke markers" d=" M 852.1626748576241 419.790482243984 L 842 424 L 852.1626748576241 428.209517756016" stroke-miterlimit="10" stroke-dasharray=""/></g><g><path fill="none" stroke="#000000" paint-order="fill stroke markers" d=" M 951 584 L 838 584" stroke-miterlimit="10" stroke-dasharray=""/></g><g><path fill="none" stroke="#000000" paint-order="fill stroke markers" d=" M 848.1626748576241 579.790482243984 L 838 584 L 848.1626748576241 588.209517756016" stroke-miterlimit="10" stroke-dasharray=""/></g><g><path fill="none" stroke="#000000" paint-order="fill stroke markers" d=" M 929 744 L 865 744" stroke-miterlimit="10" stroke-dasharray=""/></g><g><path fill="none" stroke="#000000" paint-order="fill stroke markers" d=" M 875.1626748576241 739.790482243984 L 865 744 L 875.1626748576241 748.209517756016" stroke-miterlimit="10" stroke-dasharray=""/></g><g><path fill="#ffffff" stroke="none" paint-order="stroke fill markers" d=" M 144.50912109375 441.85 C 144.50912109375 436.96227952000004 148.46692346174999 433 153.34912109375 433 C 158.23131872575001 433 162.18912109375 436.96227952000004 162.18912109375 441.85 C 162.18912109375 446.73772048 158.23131872575001 450.7 153.34912109375 450.7 C 148.46692346174999 450.7 144.50912109375 446.73772048 144.50912109375 441.85 Z"/></g><g><path fill="none" stroke="#000000" paint-order="fill stroke markers" d=" M 144.50912109375 441.85 C 144.50912109375 436.96227952000004 148.46692346174999 433 153.34912109375 433 C 158.23131872575001 433 162.18912109375 436.96227952000004 162.18912109375 441.85 C 162.18912109375 446.73772048 158.23131872575001 450.7 153.34912109375 450.7 C 148.46692346174999 450.7 144.50912109375 446.73772048 144.50912109375 441.85 Z" stroke-miterlimit="10" stroke-dasharray=""/></g><g><path fill="none" stroke="#000000" paint-order="fill stroke markers" d=" M 153.34912109375 450.7 L 153.34912109375 468.3" stroke-miterlimit="10" stroke-dasharray=""/></g><g><path fill="none" stroke="#000000" paint-order="fill stroke markers" d=" M 143.98912109375 457.3 L 162.70912109375 457.3" stroke-miterlimit="10" stroke-dasharray=""/></g><g><path fill="none" stroke="#000000" paint-order="fill stroke markers" d=" M 153.34912109375 468.3 L 140.34912109375 486" stroke-miterlimit="10" stroke-dasharray=""/></g><g><path fill="none" stroke="#000000" paint-order="fill stroke markers" d=" M 153.34912109375 468.3 L 166.34912109375 486" stroke-miterlimit="10" stroke-dasharray=""/></g><g><g><path fill="none" stroke="none"/><text fill="#000000" stroke="none" font-family="Arial" font-size="13px" font-style="normal" font-weight="bold" text-decoration="undefined" x="159.84912109375" y="500.5" text-anchor="middle" dominant-baseline="central" transform="matrix(1 0 0 1 -6 0)">Usuario</text></g></g><g><path fill="none" stroke="#000000" paint-order="fill stroke markers" d=" M 182 431 L 435 76" stroke-miterlimit="10" stroke-dasharray=""/></g><g><path fill="none" stroke="#000000" paint-order="fill stroke markers" d=" M 189 431 L 437 150" stroke-miterlimit="10" stroke-dasharray=""/></g><g><path fill="none" stroke="#000000" paint-order="fill stroke markers" d=" M 199 431 L 429 224" stroke-miterlimit="10" stroke-dasharray=""/></g><g><path fill="none" stroke="#000000" paint-order="fill stroke markers" d=" M 199 442 L 416 298" stroke-miterlimit="10" stroke-dasharray=""/></g><g><path fill="none" stroke="#000000" paint-order="fill stroke markers" d=" M 199 453 L 390 372" stroke-miterlimit="10" stroke-dasharray=""/></g><g><path fill="none" stroke="#000000" paint-order="fill stroke markers" d=" M 199 463 L 369 430" stroke-miterlimit="10" stroke-dasharray=""/></g><g><path fill="none" stroke="#000000" paint-order="fill stroke markers" d=" M 199 474 L 363 481" stroke-miterlimit="10" stroke-dasharray=""/></g><g><path fill="none" stroke="#000000" paint-order="fill stroke markers" d=" M 199 485 L 379 535" stroke-miterlimit="10" stroke-dasharray=""/></g><g><path fill="none" stroke="#000000" paint-order="fill stroke markers" d=" M 199 496 L 403 601" stroke-miterlimit="10" stroke-dasharray=""/></g><g><path fill="none" stroke="#000000" paint-order="fill stroke markers" d=" M 199 506 L 422 675" stroke-miterlimit="10" stroke-dasharray=""/></g><g><path fill="none" stroke="#000000" paint-order="fill stroke markers" d=" M 194 513 L 433 749" stroke-miterlimit="10" stroke-dasharray=""/></g><g><path fill="none" stroke="#000000" paint-order="fill stroke markers" d=" M 187 513 L 440 823" stroke-miterlimit="10" stroke-dasharray=""/></g></g></svg>