<svg version="1.1" xmlns="http://www.w3.org/2000/svg" xmlns:xlink="http://www.w3.org/1999/xlink" width="1796" height="980"><defs/><g><g><path fill="none" stroke="#000000" paint-order="fill stroke markers" d=" M 10 10 L 1786 10 L 1786 970 L 10 970 L 10 10" stroke-miterlimit="10" stroke-dasharray=""/></g><g><path fill="#ffffff" stroke="none" paint-order="stroke fill markers" d=" M 10 10 L 10 33 L 221.10791015625 33 L 232.60791015625 21.5 L 232.60791015625 10 L 10 10"/></g><g><path fill="none" stroke="#000000" paint-order="fill stroke markers" d=" M 10 10 L 10 33 L 221.10791015625 33 L 232.60791015625 21.5 L 232.60791015625 10 L 10 10 L 10 10" stroke-miterlimit="10" stroke-dasharray=""/></g><g><g><path fill="none" stroke="none"/><text fill="#000000" stroke="none" font-family="Arial" font-size="13px" font-style="normal" font-weight="normal" text-decoration="undefined" x="115.4189453125" y="19.5" text-anchor="middle" dominant-baseline="central" transform="matrix(1 0 0 1 10 2)">SQ-006 Gestionar Presupuesto</text></g></g><g><g><path fill="none" stroke="none"/><text fill="#000000" stroke="none" font-family="Arial" font-size="13px" font-style="normal" font-weight="bold" text-decoration="undefined" x="11.864990234375" y="19.5" text-anchor="middle" dominant-baseline="central" transform="matrix(1 0 0 1 10 2)">sd</text></g></g><g><rect fill="#C0C0C0" stroke="none" x="47" y="47" width="72.736328125" height="40" transform="matrix(1 0 0 1 10 2)" fill-opacity="0.2"/></g><g><rect fill="#ffffff" stroke="none" x="40" y="40" width="72.736328125" height="40" transform="matrix(1 0 0 1 10 2)"/></g><g><path fill="none" stroke="#000000" paint-order="fill stroke markers" d=" M 50 42 L 122.736328125 42 L 122.736328125 82 L 50 82 L 50 42 Z Z" stroke-miterlimit="10" stroke-dasharray=""/></g><g><g><path fill="none" stroke="none"/><text fill="#000000" stroke="none" font-family="Arial" font-size="13px" font-style="normal" font-weight="normal" text-decoration="undefined" x="76.8681640625" y="51.5" text-anchor="middle" dominant-baseline="central" transform="matrix(1 0 0 1 10 2)">«Actor»</text></g></g><g><g><path fill="none" stroke="none"/><text fill="#000000" stroke="none" font-family="Arial" font-size="13px" font-style="normal" font-weight="bold" text-decoration="undefined" x="76.8681640625" y="66.5" text-anchor="middle" dominant-baseline="central" transform="matrix(1 0 0 1 10 2)">Usuario</text></g></g><g><path fill="none" stroke="#000000" paint-order="fill stroke markers" d=" M 86.5 83 L 86.5 970" stroke-miterlimit="10" stroke-dasharray="3"/></g><g><rect fill="#C0C0C0" stroke="none" x="335" y="47" width="111.0380859375" height="40" transform="matrix(1 0 0 1 10 2)" fill-opacity="0.2"/></g><g><rect fill="#ffffff" stroke="none" x="328" y="40" width="111.0380859375" height="40" transform="matrix(1 0 0 1 10 2)"/></g><g><path fill="none" stroke="#000000" paint-order="fill stroke markers" d=" M 338 42 L 449.0380859375 42 L 449.0380859375 82 L 338 82 L 338 42 Z Z" stroke-miterlimit="10" stroke-dasharray=""/></g><g><g><path fill="none" stroke="none"/><text fill="#000000" stroke="none" font-family="Arial" font-size="13px" font-style="normal" font-weight="normal" text-decoration="undefined" x="384.01904296875" y="51.5" text-anchor="middle" dominant-baseline="central" transform="matrix(1 0 0 1 10 2)">«Boundary»</text></g></g><g><g><path fill="none" stroke="none"/><text fill="#000000" stroke="none" font-family="Arial" font-size="13px" font-style="normal" font-weight="bold" text-decoration="undefined" x="384.01904296875" y="66.5" text-anchor="middle" dominant-baseline="central" transform="matrix(1 0 0 1 10 2)">Ficha Paciente</text></g></g><g><path fill="none" stroke="#000000" paint-order="fill stroke markers" d=" M 394.5 83 L 394.5 970" stroke-miterlimit="10" stroke-dasharray="3"/></g><g><rect fill="#C0C0C0" stroke="none" x="231" y="47" width="90.10986328125" height="40" transform="matrix(1 0 0 1 10 2)" fill-opacity="0.2"/></g><g><rect fill="#ffffff" stroke="none" x="224" y="40" width="90.10986328125" height="40" transform="matrix(1 0 0 1 10 2)"/></g><g><path fill="none" stroke="#000000" paint-order="fill stroke markers" d=" M 234 42 L 324.10986328125 42 L 324.10986328125 82 L 234 82 L 234 42 Z Z" stroke-miterlimit="10" stroke-dasharray=""/></g><g><g><path fill="none" stroke="none"/><text fill="#000000" stroke="none" font-family="Arial" font-size="13px" font-style="normal" font-weight="normal" text-decoration="undefined" x="269.554931640625" y="51.5" text-anchor="middle" dominant-baseline="central" transform="matrix(1 0 0 1 10 2)">«Boundary»</text></g></g><g><g><path fill="none" stroke="none"/><text fill="#000000" stroke="none" font-family="Arial" font-size="13px" font-style="normal" font-weight="bold" text-decoration="undefined" x="269.554931640625" y="66.5" text-anchor="middle" dominant-baseline="central" transform="matrix(1 0 0 1 10 2)">Inicio</text></g></g><g><path fill="none" stroke="#000000" paint-order="fill stroke markers" d=" M 279.5 83 L 279.5 970" stroke-miterlimit="10" stroke-dasharray="3"/></g><g><rect fill="#C0C0C0" stroke="none" x="479" y="47" width="147.14990234375" height="40" transform="matrix(1 0 0 1 10 2)" fill-opacity="0.2"/></g><g><rect fill="#ffffff" stroke="none" x="472" y="40" width="147.14990234375" height="40" transform="matrix(1 0 0 1 10 2)"/></g><g><path fill="none" stroke="#000000" paint-order="fill stroke markers" d=" M 482 42 L 629.14990234375 42 L 629.14990234375 82 L 482 82 L 482 42 Z Z" stroke-miterlimit="10" stroke-dasharray=""/></g><g><g><path fill="none" stroke="none"/><text fill="#000000" stroke="none" font-family="Arial" font-size="13px" font-style="normal" font-weight="normal" text-decoration="undefined" x="546.074951171875" y="51.5" text-anchor="middle" dominant-baseline="central" transform="matrix(1 0 0 1 10 2)">«Boundary»</text></g></g><g><g><path fill="none" stroke="none"/><text fill="#000000" stroke="none" font-family="Arial" font-size="13px" font-style="normal" font-weight="bold" text-decoration="undefined" x="546.074951171875" y="66.5" text-anchor="middle" dominant-baseline="central" transform="matrix(1 0 0 1 10 2)">Ventana Tratamiento</text></g></g><g><path fill="none" stroke="#000000" paint-order="fill stroke markers" d=" M 556.5 83 L 556.5 970" stroke-miterlimit="10" stroke-dasharray="3"/></g><g><rect fill="#C0C0C0" stroke="none" x="759" y="47" width="152.208984375" height="40" transform="matrix(1 0 0 1 10 2)" fill-opacity="0.2"/></g><g><rect fill="#ffffff" stroke="none" x="752" y="40" width="152.208984375" height="40" transform="matrix(1 0 0 1 10 2)"/></g><g><path fill="none" stroke="#000000" paint-order="fill stroke markers" d=" M 762 42 L 914.208984375 42 L 914.208984375 82 L 762 82 L 762 42 Z Z" stroke-miterlimit="10" stroke-dasharray=""/></g><g><g><path fill="none" stroke="none"/><text fill="#000000" stroke="none" font-family="Arial" font-size="13px" font-style="normal" font-weight="normal" text-decoration="undefined" x="828.6044921875" y="51.5" text-anchor="middle" dominant-baseline="central" transform="matrix(1 0 0 1 10 2)">«Boundary»</text></g></g><g><g><path fill="none" stroke="none"/><text fill="#000000" stroke="none" font-family="Arial" font-size="13px" font-style="normal" font-weight="bold" text-decoration="undefined" x="828.6044921875" y="66.5" text-anchor="middle" dominant-baseline="central" transform="matrix(1 0 0 1 10 2)">Ventana Presupuesto</text></g></g><g><path fill="none" stroke="#000000" paint-order="fill stroke markers" d=" M 838.5 83 L 838.5 970" stroke-miterlimit="10" stroke-dasharray="3"/></g><g><rect fill="#C0C0C0" stroke="none" x="927" y="47" width="176.76806640625" height="40" transform="matrix(1 0 0 1 10 2)" fill-opacity="0.2"/></g><g><rect fill="#ffffff" stroke="none" x="920" y="40" width="176.76806640625" height="40" transform="matrix(1 0 0 1 10 2)"/></g><g><path fill="none" stroke="#000000" paint-order="fill stroke markers" d=" M 930 42 L 1106.76806640625 42 L 1106.76806640625 82 L 930 82 L 930 42 Z Z" stroke-miterlimit="10" stroke-dasharray=""/></g><g><g><path fill="none" stroke="none"/><text fill="#000000" stroke="none" font-family="Arial" font-size="13px" font-style="normal" font-weight="normal" text-decoration="undefined" x="1008.884033203125" y="51.5" text-anchor="middle" dominant-baseline="central" transform="matrix(1 0 0 1 10 2)">«Boundary»</text></g></g><g><g><path fill="none" stroke="none"/><text fill="#000000" stroke="none" font-family="Arial" font-size="13px" font-style="normal" font-weight="bold" text-decoration="undefined" x="1008.884033203125" y="66.5" text-anchor="middle" dominant-baseline="central" transform="matrix(1 0 0 1 10 2)">Creación de Presupuesto</text></g></g><g><path fill="none" stroke="#000000" paint-order="fill stroke markers" d=" M 1018.5 83 L 1018.5 970" stroke-miterlimit="10" stroke-dasharray="3"/></g><g><rect fill="#C0C0C0" stroke="none" x="1159" y="47" width="98.74267578125" height="40" transform="matrix(1 0 0 1 10 2)" fill-opacity="0.2"/></g><g><rect fill="#ffffff" stroke="none" x="1152" y="40" width="98.74267578125" height="40" transform="matrix(1 0 0 1 10 2)"/></g><g><path fill="none" stroke="#000000" paint-order="fill stroke markers" d=" M 1162 42 L 1260.74267578125 42 L 1260.74267578125 82 L 1162 82 L 1162 42 Z Z" stroke-miterlimit="10" stroke-dasharray=""/></g><g><g><path fill="none" stroke="none"/><text fill="#000000" stroke="none" font-family="Arial" font-size="13px" font-style="normal" font-weight="normal" text-decoration="undefined" x="1201.871337890625" y="51.5" text-anchor="middle" dominant-baseline="central" transform="matrix(1 0 0 1 10 2)">«Control»</text></g></g><g><g><path fill="none" stroke="none"/><text fill="#000000" stroke="none" font-family="Arial" font-size="13px" font-style="normal" font-weight="bold" text-decoration="undefined" x="1201.871337890625" y="66.5" text-anchor="middle" dominant-baseline="central" transform="matrix(1 0 0 1 10 2)">Presupuesto</text></g></g><g><path fill="none" stroke="#000000" paint-order="fill stroke markers" d=" M 1211.5 83 L 1211.5 970" stroke-miterlimit="10" stroke-dasharray="3"/></g><g><rect fill="#C0C0C0" stroke="none" x="1351" y="47" width="138.47265625" height="40" transform="matrix(1 0 0 1 10 2)" fill-opacity="0.2"/></g><g><rect fill="#ffffff" stroke="none" x="1344" y="40" width="138.47265625" height="40" transform="matrix(1 0 0 1 10 2)"/></g><g><path fill="none" stroke="#000000" paint-order="fill stroke markers" d=" M 1354 42 L 1492.47265625 42 L 1492.47265625 82 L 1354 82 L 1354 42 Z Z" stroke-miterlimit="10" stroke-dasharray=""/></g><g><g><path fill="none" stroke="none"/><text fill="#000000" stroke="none" font-family="Arial" font-size="13px" font-style="normal" font-weight="normal" text-decoration="undefined" x="1413.736328125" y="51.5" text-anchor="middle" dominant-baseline="central" transform="matrix(1 0 0 1 10 2)">«Control»</text></g></g><g><g><path fill="none" stroke="none"/><text fill="#000000" stroke="none" font-family="Arial" font-size="13px" font-style="normal" font-weight="bold" text-decoration="undefined" x="1413.736328125" y="66.5" text-anchor="middle" dominant-baseline="central" transform="matrix(1 0 0 1 10 2)">Datos Presupuesto</text></g></g><g><path fill="none" stroke="#000000" paint-order="fill stroke markers" d=" M 1423.5 83 L 1423.5 970" stroke-miterlimit="10" stroke-dasharray="3"/></g><g><rect fill="#C0C0C0" stroke="none" x="1567" y="47" width="147.8671875" height="40" transform="matrix(1 0 0 1 10 2)" fill-opacity="0.2"/></g><g><rect fill="#ffffff" stroke="none" x="1560" y="40" width="147.8671875" height="40" transform="matrix(1 0 0 1 10 2)"/></g><g><path fill="none" stroke="#000000" paint-order="fill stroke markers" d=" M 1570 42 L 1717.8671875 42 L 1717.8671875 82 L 1570 82 L 1570 42 Z Z" stroke-miterlimit="10" stroke-dasharray=""/></g><g><g><path fill="none" stroke="none"/><text fill="#000000" stroke="none" font-family="Arial" font-size="13px" font-style="normal" font-weight="normal" text-decoration="undefined" x="1634.43359375" y="51.5" text-anchor="middle" dominant-baseline="central" transform="matrix(1 0 0 1 10 2)">«Entity»</text></g></g><g><g><path fill="none" stroke="none"/><text fill="#000000" stroke="none" font-family="Arial" font-size="13px" font-style="normal" font-weight="bold" text-decoration="undefined" x="1634.43359375" y="66.5" text-anchor="middle" dominant-baseline="central" transform="matrix(1 0 0 1 10 2)">Presupuesto</text></g></g><g><path fill="none" stroke="#000000" paint-order="fill stroke markers" d=" M 1644.5 83 L 1644.5 970" stroke-miterlimit="10" stroke-dasharray="3"/></g><g><rect fill="#ffffff" stroke="none" x="56" y="96" width="224" height="40" transform="matrix(1 0 0 1 10 2)"/></g><g><path fill="none" stroke="#000000" paint-order="fill stroke markers" d=" M 66 98 L 290 98 L 290 138 L 66 138 L 66 98 Z Z" stroke-miterlimit="10" stroke-dasharray=""/></g><g><path fill="none" stroke="#000000" paint-order="fill stroke markers" d=" M 66 98 L 66 121 L 91.1708984375 121 L 102.6708984375 109.5 L 102.6708984375 98 L 66 98 L 66 98" stroke-miterlimit="10" stroke-dasharray=""/></g><g><g><path fill="none" stroke="none"/><text fill="#000000" stroke="none" font-family="Arial" font-size="13px" font-style="normal" font-weight="normal" text-decoration="undefined" x="186.33544921875" y="107.5" text-anchor="middle" dominant-baseline="central" transform="matrix(1 0 0 1 10 2)">(sd 002 Consultar Paciente)</text></g></g><g><g><path fill="none" stroke="none"/><text fill="#000000" stroke="none" font-family="Arial" font-size="13px" font-style="normal" font-weight="bold" text-decoration="undefined" x="68.58544921875" y="107.5" text-anchor="middle" dominant-baseline="central" transform="matrix(1 0 0 1 10 2)">ref</text></g></g><g><path fill="none" stroke="#000000" paint-order="fill stroke markers" d=" M 87 163 L 272 163" stroke-miterlimit="10" stroke-dasharray=""/></g><g><path fill="#000000" stroke="none" paint-order="stroke fill markers" d=" M 261.83732514237585 167.209517756016 L 272 163 L 261.83732514237585 158.790482243984"/></g><g><path fill="none" stroke="#000000" paint-order="fill stroke markers" d=" M 261.83732514237585 167.209517756016 L 272 163 L 261.83732514237585 158.790482243984 L 261.83732514237585 167.209517756016" stroke-miterlimit="10" stroke-dasharray=""/></g><g><rect fill="#ffffff" stroke="none" x="97" y="145" width="145.24072265625" height="13" transform="matrix(1 0 0 1 10 2)"/></g><g><g><path fill="none" stroke="none"/><text fill="#000000" stroke="none" font-family="Arial" font-size="13px" font-style="normal" font-weight="normal" text-decoration="undefined" x="169.620361328125" y="151.5" text-anchor="middle" dominant-baseline="central" transform="matrix(1 0 0 1 10 2)">1 : SeleccionarPaciente()</text></g></g><g><rect fill="#ffffff" stroke="none" x="262" y="161" width="14" height="28" transform="matrix(1 0 0 1 10 2)"/></g><g><path fill="none" stroke="#000000" paint-order="fill stroke markers" d=" M 272 163 L 286 163 L 286 191 L 272 191 L 272 163 Z Z" stroke-miterlimit="10" stroke-dasharray=""/></g><g><path fill="none" stroke="#000000" paint-order="fill stroke markers" d=" M 280 210 L 387 210" stroke-miterlimit="10" stroke-dasharray=""/></g><g><path fill="#000000" stroke="none" paint-order="stroke fill markers" d=" M 376.83732514237585 214.209517756016 L 387 210 L 376.83732514237585 205.790482243984"/></g><g><path fill="none" stroke="#000000" paint-order="fill stroke markers" d=" M 376.83732514237585 214.209517756016 L 387 210 L 376.83732514237585 205.790482243984 L 376.83732514237585 214.209517756016" stroke-miterlimit="10" stroke-dasharray=""/></g><g><rect fill="#ffffff" stroke="none" x="284" y="192" width="78.04443359375" height="13" transform="matrix(1 0 0 1 10 2)"/></g><g><g><path fill="none" stroke="none"/><text fill="#000000" stroke="none" font-family="Arial" font-size="13px" font-style="normal" font-weight="normal" text-decoration="undefined" x="323.022216796875" y="198.5" text-anchor="middle" dominant-baseline="central" transform="matrix(1 0 0 1 10 2)">2 : Redirige</text></g></g><g><rect fill="#ffffff" stroke="none" x="377" y="208" width="14" height="28" transform="matrix(1 0 0 1 10 2)"/></g><g><path fill="none" stroke="#000000" paint-order="fill stroke markers" d=" M 387 210 L 401 210 L 401 238 L 387 238 L 387 210 Z Z" stroke-miterlimit="10" stroke-dasharray=""/></g><g><path fill="none" stroke="#000000" paint-order="fill stroke markers" d=" M 87 242 L 387 242" stroke-miterlimit="10" stroke-dasharray=""/></g><g><path fill="#000000" stroke="none" paint-order="stroke fill markers" d=" M 376.83732514237585 246.209517756016 L 387 242 L 376.83732514237585 237.790482243984"/></g><g><path fill="none" stroke="#000000" paint-order="fill stroke markers" d=" M 376.83732514237585 246.209517756016 L 387 242 L 376.83732514237585 237.790482243984 L 376.83732514237585 246.209517756016" stroke-miterlimit="10" stroke-dasharray=""/></g><g><rect fill="#ffffff" stroke="none" x="96" y="222" width="166.5625" height="13" transform="matrix(1 0 0 1 10 2)"/></g><g><g><path fill="none" stroke="none"/><text fill="#000000" stroke="none" font-family="Arial" font-size="13px" font-style="normal" font-weight="normal" text-decoration="undefined" x="179.28125" y="228.5" text-anchor="middle" dominant-baseline="central" transform="matrix(1 0 0 1 10 2)">3 : ClickBoton(boton)</text></g></g><g><rect fill="#ffffff" stroke="none" x="377" y="240" width="14" height="28" transform="matrix(1 0 0 1 10 2)"/></g><g><path fill="none" stroke="#000000" paint-order="fill stroke markers" d=" M 387 242 L 401 242 L 401 270 L 387 270 L 387 242 Z Z" stroke-miterlimit="10" stroke-dasharray=""/></g><g><path fill="none" stroke="#000000" paint-order="fill stroke markers" d=" M 395 362 L 549 362" stroke-miterlimit="10" stroke-dasharray=""/></g><g><path fill="#000000" stroke="none" paint-order="stroke fill markers" d=" M 538.8373251423759 366.209517756016 L 549 362 L 538.8373251423758 357.790482243984"/></g><g><path fill="none" stroke="#000000" paint-order="fill stroke markers" d=" M 538.8373251423759 366.209517756016 L 549 362 L 538.8373251423758 357.790482243984 L 538.8373251423759 366.209517756016" stroke-miterlimit="10" stroke-dasharray=""/></g><g><rect fill="#ffffff" stroke="none" x="423" y="344" width="78.04443359375" height="13" transform="matrix(1 0 0 1 10 2)"/></g><g><g><path fill="none" stroke="none"/><text fill="#000000" stroke="none" font-family="Arial" font-size="13px" font-style="normal" font-weight="normal" text-decoration="undefined" x="462.022216796875" y="350.5" text-anchor="middle" dominant-baseline="central" transform="matrix(1 0 0 1 10 2)">4 : Redirige</text></g></g><g><rect fill="#ffffff" stroke="none" x="539" y="360" width="14" height="28" transform="matrix(1 0 0 1 10 2)"/></g><g><path fill="none" stroke="#000000" paint-order="fill stroke markers" d=" M 549 362 L 563 362 L 563 390 L 549 390 L 549 362 Z Z" stroke-miterlimit="10" stroke-dasharray=""/></g><g><path fill="none" stroke="#000000" paint-order="fill stroke markers" d=" M 87 435 L 549 435" stroke-miterlimit="10" stroke-dasharray=""/></g><g><path fill="#000000" stroke="none" paint-order="stroke fill markers" d=" M 538.8373251423759 439.209517756016 L 549 435 L 538.8373251423758 430.790482243984"/></g><g><path fill="none" stroke="#000000" paint-order="fill stroke markers" d=" M 538.8373251423759 439.209517756016 L 549 435 L 538.8373251423758 430.790482243984 L 538.8373251423759 439.209517756016" stroke-miterlimit="10" stroke-dasharray=""/></g><g><rect fill="#ffffff" stroke="none" x="96" y="416" width="166.5625" height="13" transform="matrix(1 0 0 1 10 2)"/></g><g><g><path fill="none" stroke="none"/><text fill="#000000" stroke="none" font-family="Arial" font-size="13px" font-style="normal" font-weight="normal" text-decoration="undefined" x="179.28125" y="422.5" text-anchor="middle" dominant-baseline="central" transform="matrix(1 0 0 1 10 2)">5 : ClickBoton(boton)</text></g></g><g><rect fill="#ffffff" stroke="none" x="539" y="433" width="14" height="28" transform="matrix(1 0 0 1 10 2)"/></g><g><path fill="none" stroke="#000000" paint-order="fill stroke markers" d=" M 549 435 L 563 435 L 563 463 L 549 463 L 549 435 Z Z" stroke-miterlimit="10" stroke-dasharray=""/></g><g><path fill="none" stroke="#000000" paint-order="fill stroke markers" d=" M 557 530 L 831 530" stroke-miterlimit="10" stroke-dasharray=""/></g><g><path fill="#000000" stroke="none" paint-order="stroke fill markers" d=" M 820.8373251423759 534.209517756016 L 831 530 L 820.8373251423758 525.790482243984"/></g><g><path fill="none" stroke="#000000" paint-order="fill stroke markers" d=" M 820.8373251423759 534.209517756016 L 831 530 L 820.8373251423758 525.790482243984 L 820.8373251423759 534.209517756016" stroke-miterlimit="10" stroke-dasharray=""/></g><g><rect fill="#ffffff" stroke="none" x="645" y="512" width="78.04443359375" height="13" transform="matrix(1 0 0 1 10 2)"/></g><g><g><path fill="none" stroke="none"/><text fill="#000000" stroke="none" font-family="Arial" font-size="13px" font-style="normal" font-weight="normal" text-decoration="undefined" x="684.022216796875" y="518.5" text-anchor="middle" dominant-baseline="central" transform="matrix(1 0 0 1 10 2)">6 : Redirige</text></g></g><g><rect fill="#ffffff" stroke="none" x="821" y="528" width="14" height="28" transform="matrix(1 0 0 1 10 2)"/></g><g><path fill="none" stroke="#000000" paint-order="fill stroke markers" d=" M 831 530 L 845 530 L 845 558 L 831 558 L 831 530 Z Z" stroke-miterlimit="10" stroke-dasharray=""/></g><g><path fill="none" stroke="#000000" paint-order="fill stroke markers" d=" M 557 610 L 1011 610" stroke-miterlimit="10" stroke-dasharray=""/></g><g><path fill="#000000" stroke="none" paint-order="stroke fill markers" d=" M 1000.8373251423759 614.209517756016 L 1011 610 L 1000.8373251423758 605.790482243984"/></g><g><path fill="none" stroke="#000000" paint-order="fill stroke markers" d=" M 1000.8373251423759 614.209517756016 L 1011 610 L 1000.8373251423758 605.790482243984 L 1000.8373251423759 614.209517756016" stroke-miterlimit="10" stroke-dasharray=""/></g><g><rect fill="#ffffff" stroke="none" x="644" y="591" width="78.04443359375" height="13" transform="matrix(1 0 0 1 10 2)"/></g><g><g><path fill="none" stroke="none"/><text fill="#000000" stroke="none" font-family="Arial" font-size="13px" font-style="normal" font-weight="normal" text-decoration="undefined" x="683.022216796875" y="597.5" text-anchor="middle" dominant-baseline="central" transform="matrix(1 0 0 1 10 2)">7 : Redirige</text></g></g><g><rect fill="#ffffff" stroke="none" x="1001" y="608" width="14" height="28" transform="matrix(1 0 0 1 10 2)"/></g><g><path fill="none" stroke="#000000" paint-order="fill stroke markers" d=" M 1011 610 L 1025 610 L 1025 638 L 1011 638 L 1011 610 Z Z" stroke-miterlimit="10" stroke-dasharray=""/></g><g><path fill="none" stroke="#000000" paint-order="fill stroke markers" d=" M 1018 664 L 87 664" stroke-miterlimit="10" stroke-dasharray="3"/></g><g><path fill="none" stroke="#000000" paint-order="fill stroke markers" d=" M 97.16267485762415 659.790482243984 L 87 664 L 97.16267485762415 668.209517756016" stroke-miterlimit="10" stroke-dasharray=""/></g><g><rect fill="#ffffff" stroke="none" x="548" y="664" width="222.5361328125" height="13" transform="matrix(1 0 0 1 10 2)"/></g><g><g><path fill="none" stroke="none"/><text fill="#000000" stroke="none" font-family="Arial" font-size="13px" font-style="normal" font-weight="normal" text-decoration="undefined" x="659.26806640625" y="670.5" text-anchor="middle" dominant-baseline="central" transform="matrix(1 0 0 1 10 2)">8 : Mostrar Formulario de Presupuesto</text></g></g><g><path fill="none" stroke="#000000" paint-order="fill stroke markers" d=" M 87 722 L 1011 722" stroke-miterlimit="10" stroke-dasharray=""/></g><g><path fill="#000000" stroke="none" paint-order="stroke fill markers" d=" M 1000.8373251423759 726.209517756016 L 1011 722 L 1000.8373251423758 717.790482243984"/></g><g><path fill="none" stroke="#000000" paint-order="fill stroke markers" d=" M 1000.8373251423759 726.209517756016 L 1011 722 L 1000.8373251423758 717.790482243984 L 1000.8373251423759 726.209517756016" stroke-miterlimit="10" stroke-dasharray=""/></g><g><rect fill="#ffffff" stroke="none" x="552" y="688" width="273.10791015625" height="26" transform="matrix(1 0 0 1 10 2)"/></g><g><g><path fill="none" stroke="none"/><text fill="#000000" stroke="none" font-family="Arial" font-size="13px" font-style="normal" font-weight="normal" text-decoration="undefined" x="688.553955078125" y="694.5" text-anchor="middle" dominant-baseline="central" transform="matrix(1 0 0 1 10 2)">9 : LlenarFormulario(es_procedimiento,</text><text fill="#000000" stroke="none" font-family="Arial" font-size="13px" font-style="normal" font-weight="normal" text-decoration="undefined" x="688.553955078125" y="707.5" text-anchor="middle" dominant-baseline="central" transform="matrix(1 0 0 1 10 2)">descripcion,costo)</text></g></g><g><rect fill="#ffffff" stroke="none" x="1001" y="720" width="14" height="28" transform="matrix(1 0 0 1 10 2)"/></g><g><path fill="none" stroke="#000000" paint-order="fill stroke markers" d=" M 1011 722 L 1025 722 L 1025 750 L 1011 750 L 1011 722 Z Z" stroke-miterlimit="10" stroke-dasharray=""/></g><g><path fill="none" stroke="#000000" paint-order="fill stroke markers" d=" M 1019 762 L 1204 762" stroke-miterlimit="10" stroke-dasharray=""/></g><g><path fill="#000000" stroke="none" paint-order="stroke fill markers" d=" M 1193.837325142376 766.209517756016 L 1204 762 L 1193.837325142376 757.790482243984"/></g><g><path fill="none" stroke="#000000" paint-order="fill stroke markers" d=" M 1193.837325142376 766.209517756016 L 1204 762 L 1193.837325142376 757.790482243984 L 1193.837325142376 766.209517756016" stroke-miterlimit="10" stroke-dasharray=""/></g><g><rect fill="#ffffff" stroke="none" x="1016" y="720" width="176" height="33" transform="matrix(1 0 0 1 10 2)"/></g><g><g><path fill="none" stroke="none"/><text fill="#000000" stroke="none" font-family="Arial" font-size="11px" font-style="normal" font-weight="normal" text-decoration="undefined" x="1104" y="725.5" text-anchor="middle" dominant-baseline="central" transform="matrix(1 0 0 1 10 2)">10 :</text><text fill="#000000" stroke="none" font-family="Arial" font-size="11px" font-style="normal" font-weight="normal" text-decoration="undefined" x="1104" y="736.5" text-anchor="middle" dominant-baseline="central" transform="matrix(1 0 0 1 10 2)">ActualizarDatos(es_procedimiento,</text><text fill="#000000" stroke="none" font-family="Arial" font-size="11px" font-style="normal" font-weight="normal" text-decoration="undefined" x="1104" y="747.5" text-anchor="middle" dominant-baseline="central" transform="matrix(1 0 0 1 10 2)">descripcion,costo)</text></g></g><g><rect fill="#ffffff" stroke="none" x="1194" y="760" width="14" height="28" transform="matrix(1 0 0 1 10 2)"/></g><g><path fill="none" stroke="#000000" paint-order="fill stroke markers" d=" M 1204 762 L 1218 762 L 1218 790 L 1204 790 L 1204 762 Z Z" stroke-miterlimit="10" stroke-dasharray=""/></g><g><path fill="none" stroke="#000000" paint-order="fill stroke markers" d=" M 1212 803 L 1416 803" stroke-miterlimit="10" stroke-dasharray=""/></g><g><path fill="#000000" stroke="none" paint-order="stroke fill markers" d=" M 1405.837325142376 807.209517756016 L 1416 803 L 1405.837325142376 798.790482243984"/></g><g><path fill="none" stroke="#000000" paint-order="fill stroke markers" d=" M 1405.837325142376 807.209517756016 L 1416 803 L 1405.837325142376 798.790482243984 L 1405.837325142376 807.209517756016" stroke-miterlimit="10" stroke-dasharray=""/></g><g><rect fill="#ffffff" stroke="none" x="1208" y="762" width="182.810546875" height="33" transform="matrix(1 0 0 1 10 2)"/></g><g><g><path fill="none" stroke="none"/><text fill="#000000" stroke="none" font-family="Arial" font-size="11px" font-style="normal" font-weight="normal" text-decoration="undefined" x="1299.4052734375" y="767.5" text-anchor="middle" dominant-baseline="central" transform="matrix(1 0 0 1 10 2)">11 :</text><text fill="#000000" stroke="none" font-family="Arial" font-size="11px" font-style="normal" font-weight="normal" text-decoration="undefined" x="1299.4052734375" y="778.5" text-anchor="middle" dominant-baseline="central" transform="matrix(1 0 0 1 10 2)">ActualizarDatos(es_procedimiento,</text><text fill="#000000" stroke="none" font-family="Arial" font-size="11px" font-style="normal" font-weight="normal" text-decoration="undefined" x="1299.4052734375" y="789.5" text-anchor="middle" dominant-baseline="central" transform="matrix(1 0 0 1 10 2)">descripcion,costo)</text></g></g><g><rect fill="#ffffff" stroke="none" x="1406" y="801" width="14" height="28" transform="matrix(1 0 0 1 10 2)"/></g><g><path fill="none" stroke="#000000" paint-order="fill stroke markers" d=" M 1416 803 L 1430 803 L 1430 831 L 1416 831 L 1416 803 Z Z" stroke-miterlimit="10" stroke-dasharray=""/></g><g><path fill="none" stroke="#000000" paint-order="fill stroke markers" d=" M 1424 852 L 1637 852" stroke-miterlimit="10" stroke-dasharray=""/></g><g><path fill="#000000" stroke="none" paint-order="stroke fill markers" d=" M 1626.837325142376 856.209517756016 L 1637 852 L 1626.837325142376 847.790482243984"/></g><g><path fill="none" stroke="#000000" paint-order="fill stroke markers" d=" M 1626.837325142376 856.209517756016 L 1637 852 L 1626.837325142376 847.790482243984 L 1626.837325142376 856.209517756016" stroke-miterlimit="10" stroke-dasharray=""/></g><g><rect fill="#ffffff" stroke="none" x="1424" y="815" width="191.81689453125" height="33" transform="matrix(1 0 0 1 10 2)"/></g><g><g><path fill="none" stroke="none"/><text fill="#000000" stroke="none" font-family="Arial" font-size="11px" font-style="normal" font-weight="normal" text-decoration="undefined" x="1519.908447265625" y="820.5" text-anchor="middle" dominant-baseline="central" transform="matrix(1 0 0 1 10 2)">12 :</text><text fill="#000000" stroke="none" font-family="Arial" font-size="11px" font-style="normal" font-weight="normal" text-decoration="undefined" x="1519.908447265625" y="831.5" text-anchor="middle" dominant-baseline="central" transform="matrix(1 0 0 1 10 2)">ActualizarDatos(es_procedimiento,</text><text fill="#000000" stroke="none" font-family="Arial" font-size="11px" font-style="normal" font-weight="normal" text-decoration="undefined" x="1519.908447265625" y="842.5" text-anchor="middle" dominant-baseline="central" transform="matrix(1 0 0 1 10 2)">descripcion,costo)</text></g></g><g><rect fill="#ffffff" stroke="none" x="1627" y="850" width="14" height="28" transform="matrix(1 0 0 1 10 2)"/></g><g><path fill="none" stroke="#000000" paint-order="fill stroke markers" d=" M 1637 852 L 1651 852 L 1651 880 L 1637 880 L 1637 852 Z Z" stroke-miterlimit="10" stroke-dasharray=""/></g><g><path fill="none" stroke="#000000" paint-order="fill stroke markers" d=" M 378 274 L 1770 274 L 1770 954 L 378 954 L 378 274" stroke-miterlimit="10" stroke-dasharray=""/></g><g><path fill="#ffffff" stroke="none" paint-order="stroke fill markers" d=" M 378 274 L 378 297 L 469.8671875 297 L 481.3671875 285.5 L 481.3671875 274 L 378 274"/></g><g><path fill="none" stroke="#000000" paint-order="fill stroke markers" d=" M 378 274 L 378 297 L 469.8671875 297 L 481.3671875 285.5 L 481.3671875 274 L 378 274 L 378 274" stroke-miterlimit="10" stroke-dasharray=""/></g><g><g><path fill="none" stroke="none"/><text fill="#000000" stroke="none" font-family="Arial" font-size="13px" font-style="normal" font-weight="normal" text-decoration="undefined" x="423.798583984375" y="283.5" text-anchor="middle" dominant-baseline="central" transform="matrix(1 0 0 1 10 2)">ClickBoton</text></g></g><g><g><path fill="none" stroke="none"/><text fill="#000000" stroke="none" font-family="Arial" font-size="13px" font-style="normal" font-weight="bold" text-decoration="undefined" x="379.864990234375" y="283.5" text-anchor="middle" dominant-baseline="central" transform="matrix(1 0 0 1 10 2)">alt</text></g></g><g><g><path fill="none" stroke="none"/><text fill="#000000" stroke="none" font-family="Arial" font-size="13px" font-style="normal" font-weight="normal" text-decoration="undefined" x="457.675048828125" y="316.5" text-anchor="middle" dominant-baseline="central" transform="matrix(1 0 0 1 10 2)">[boton=Ver Tratamiento]</text></g></g><g><path fill="none" stroke="#000000" paint-order="fill stroke markers" d=" M 442 450 L 1754 450 L 1754 946 L 442 946 L 442 450" stroke-miterlimit="10" stroke-dasharray=""/></g><g><path fill="#ffffff" stroke="none" paint-order="stroke fill markers" d=" M 442 450 L 442 473 L 533.8671875 473 L 545.3671875 461.5 L 545.3671875 450 L 442 450"/></g><g><path fill="none" stroke="#000000" paint-order="fill stroke markers" d=" M 442 450 L 442 473 L 533.8671875 473 L 545.3671875 461.5 L 545.3671875 450 L 442 450 L 442 450" stroke-miterlimit="10" stroke-dasharray=""/></g><g><g><path fill="none" stroke="none"/><text fill="#000000" stroke="none" font-family="Arial" font-size="13px" font-style="normal" font-weight="normal" text-decoration="undefined" x="487.798583984375" y="459.5" text-anchor="middle" dominant-baseline="central" transform="matrix(1 0 0 1 10 2)">ClickBoton</text></g></g><g><g><path fill="none" stroke="none"/><text fill="#000000" stroke="none" font-family="Arial" font-size="13px" font-style="normal" font-weight="bold" text-decoration="undefined" x="443.864990234375" y="459.5" text-anchor="middle" dominant-baseline="central" transform="matrix(1 0 0 1 10 2)">alt</text></g></g><g><g><path fill="none" stroke="none"/><text fill="#000000" stroke="none" font-family="Arial" font-size="13px" font-style="normal" font-weight="normal" text-decoration="undefined" x="523.731689453125" y="492.5" text-anchor="middle" dominant-baseline="central" transform="matrix(1 0 0 1 10 2)">[boton=Ver Presupuesto]</text></g></g><g><path fill="none" stroke="#000000" paint-order="fill stroke markers" d=" M 442 562 L 1753 562" stroke-miterlimit="10" stroke-dasharray="10,3"/></g><g><g><path fill="none" stroke="none"/><text fill="#000000" stroke="none" font-family="Arial" font-size="13px" font-style="normal" font-weight="normal" text-decoration="undefined" x="532.034423828125" y="581.5" text-anchor="middle" dominant-baseline="central" transform="matrix(1 0 0 1 10 2)">[boton= Crear Presupuesto]</text></g></g></g></svg>